<svg version="1.1" width="600" height="313" xmlns="http://www.w3.org/2000/svg">
<rect x="0" y="0" width="600" height="313" fill="#95885f" />
<g transform="scale(1, 1)">
<path d="M 331 328 L 257 119 L -16 306 Z" fill="#e2ffff" fill-opacity="0.501961" />
<path d="M 533 -16 L 375 328 L 615 308 Z" fill="#0f4a00" fill-opacity="0.501961" />
<path d="M 369 328 L 158 69 L 478 -16 Z" fill="#ff853f" fill-opacity="0.501961" />
<path d="M 285 307 L 1 328 L -16 125 Z" fill="#9ddeff" fill-opacity="0.501961" />
<path d="M 69 49 L 25 230 L 245 182 Z" fill="#14560d" fill-opacity="0.501961" />
<path d="M 198 101 L 132 142 L 93 -4 Z" fill="#8bd6ff" fill-opacity="0.501961" />
<path d="M 509 328 L 615 24 L 379 130 Z" fill="#553700" fill-opacity="0.501961" />
<path d="M 203 3 L 233 73 L 290 -8 Z" fill="#000000" fill-opacity="0.501961" />
<path d="M 333 259 L 169 173 L -16 328 Z" fill="#bddcff" fill-opacity="0.501961" />
<path d="M 298 -16 L 314 109 L 208 138 Z" fill="#ffd8cb" fill-opacity="0.501961" />
<path d="M 304 -16 L 413 280 L 482 193 Z" fill="#de4215" fill-opacity="0.501961" />
<path d="M 587 187 L 583 93 L 514 164 Z" fill="#ffa23d" fill-opacity="0.501961" />
<path d="M 403 -16 L 615 139 L 613 -12 Z" fill="#4a2c00" fill-opacity="0.501961" />
<path d="M 268 239 L 507 220 L 270 328 Z" fill="#f7b640" fill-opacity="0.501961" />
<path d="M 256 6 L 373 -13 L 367 54 Z" fill="#f8040e" fill-opacity="0.501961" />
<path d="M -16 328 L 317 328 L -10 198 Z" fill="#bddfff" fill-opacity="0.501961" />
<path d="M 434 -16 L 400 115 L 366 5 Z" fill="#ffc2c4" fill-opacity="0.501961" />
<path d="M 367 61 L 354 110 L 392 100 Z" fill="#000000" fill-opacity="0.501961" />
<path d="M 615 183 L 460 175 L 558 311 Z" fill="#004f00" fill-opacity="0.501961" />
<path d="M 81 35 L 51 102 L 26 14 Z" fill="#8bccff" fill-opacity="0.501961" />
<path d="M 3 120 L -16 10 L 65 107 Z" fill="#2e6400" fill-opacity="0.501961" />
<path d="M 296 162 L 324 246 L 385 149 Z" fill="#ffacb4" fill-opacity="0.501961" />
<path d="M 52 112 L -10 131 L -16 251 Z" fill="#98ceff" fill-opacity="0.501961" />
<path d="M 521 22 L 461 118 L 376 72 Z" fill="#fb9b2b" fill-opacity="0.501961" />
<path d="M 449 287 L 516 328 L 471 327 Z" fill="#ffffde" fill-opacity="0.501961" />
<path d="M 482 113 L 434 118 L 480 180 Z" fill="#000000" fill-opacity="0.501961" />
<path d="M 209 117 L 285 -5 L 162 71 Z" fill="#47710a" fill-opacity="0.501961" />
<path d="M 61 133 L 121 134 L 91 32 Z" fill="#093800" fill-opacity="0.501961" />
<path d="M 161 164 L 123 204 L 112 157 Z" fill="#000000" fill-opacity="0.501961" />
<path d="M 248 199 L 324 81 L 302 209 Z" fill="#98b601" fill-opacity="0.501961" />
<path d="M 231 210 L 161 119 L 213 115 Z" fill="#476c0b" fill-opacity="0.501961" />
<path d="M 255 200 L 212 161 L 342 39 Z" fill="#ffbf5c" fill-opacity="0.501961" />
<path d="M 241 326 L 397 252 L 408 326 Z" fill="#b39210" fill-opacity="0.501961" />
<path d="M 149 31 L 72 4 L 166 126 Z" fill="#8dc0ff" fill-opacity="0.501961" />
<path d="M 408 -16 L 553 -14 L 458 61 Z" fill="#b0161c" fill-opacity="0.501961" />
<path d="M 546 281 L 543 328 L 491 221 Z" fill="#82f100" fill-opacity="0.501961" />
<path d="M 485 145 L 506 141 L 489 163 Z" fill="#ffffd3" fill-opacity="0.501961" />
<path d="M 402 307 L 467 222 L 512 263 Z" fill="#0e4300" fill-opacity="0.501961" />
<path d="M 231 40 L 177 -16 L 180 26 Z" fill="#6eb9ff" fill-opacity="0.501961" />
<path d="M 285 204 L 137 191 L 246 328 Z" fill="#a8d6ff" fill-opacity="0.501961" />
<path d="M 413 108 L 400 212 L 291 101 Z" fill="#ff433a" fill-opacity="0.501961" />
<path d="M 477 206 L 413 277 L 333 211 Z" fill="#b3b735" fill-opacity="0.501961" />
<path d="M 561 59 L 615 126 L 556 142 Z" fill="#cc072d" fill-opacity="0.501961" />
<path d="M 589 186 L 600 137 L 615 206 Z" fill="#000000" fill-opacity="0.501961" />
<path d="M 565 89 L 540 19 L 485 218 Z" fill="#065200" fill-opacity="0.501961" />
<path d="M 615 1 L 517 5 L 581 20 Z" fill="#002f00" fill-opacity="0.501961" />
<path d="M 583 196 L 600 120 L 525 144 Z" fill="#f3ad43" fill-opacity="0.501961" />
<path d="M 376 212 L 390 238 L 353 248 Z" fill="#362f00" fill-opacity="0.501961" />
<path d="M 269 18 L 198 -2 L 251 48 Z" fill="#000000" fill-opacity="0.501961" />
<path d="M 344 64 L 311 -16 L 255 40 Z" fill="#ff8084" fill-opacity="0.501961" />
<path d="M 285 192 L 258 295 L 321 279 Z" fill="#ffc7b6" fill-opacity="0.501961" />
<path d="M 71 78 L 138 87 L 56 231 Z" fill="#3e5d00" fill-opacity="0.501961" />
<path d="M 183 -1 L 95 -2 L 82 25 Z" fill="#5f690e" fill-opacity="0.501961" />
<path d="M 375 37 L 281 137 L 352 127 Z" fill="#d56b00" fill-opacity="0.501961" />
<path d="M 88 226 L -16 179 L 158 192 Z" fill="#627653" fill-opacity="0.501961" />
<path d="M 533 15 L 615 23 L 556 44 Z" fill="#add74d" fill-opacity="0.501961" />
<path d="M -16 314 L -16 161 L 132 323 Z" fill="#b2d4ff" fill-opacity="0.501961" />
<path d="M 134 101 L 186 95 L 119 147 Z" fill="#adccff" fill-opacity="0.501961" />
<path d="M -5 -16 L 9 19 L 54 13 Z" fill="#125402" fill-opacity="0.501961" />
<path d="M 485 181 L 397 198 L 425 107 Z" fill="#8d2108" fill-opacity="0.501961" />
<path d="M 346 323 L 267 306 L 328 260 Z" fill="#ff7c43" fill-opacity="0.501961" />
<path d="M 300 200 L 326 250 L 303 241 Z" fill="#3d7a00" fill-opacity="0.501961" />
<path d="M 31 20 L 37 90 L 85 72 Z" fill="#8aaed8" fill-opacity="0.501961" />
<path d="M 615 122 L 615 77 L 551 37 Z" fill="#001100" fill-opacity="0.501961" />
<path d="M 344 115 L 293 184 L 381 206 Z" fill="#ff9799" fill-opacity="0.501961" />
<path d="M 379 35 L 410 46 L 411 -16 Z" fill="#ffede6" fill-opacity="0.501961" />
<path d="M 263 204 L 167 142 L 188 200 Z" fill="#5d7d7c" fill-opacity="0.501961" />
<path d="M 275 12 L 321 76 L 213 149 Z" fill="#ffc3a8" fill-opacity="0.501961" />
<path d="M 469 107 L 506 148 L 546 -16 Z" fill="#54912a" fill-opacity="0.501961" />
<path d="M 379 -16 L 354 48 L 331 -16 Z" fill="#9d0000" fill-opacity="0.501961" />
<path d="M 51 57 L 102 80 L 118 30 Z" fill="#466a52" fill-opacity="0.501961" />
<path d="M 370 65 L 394 102 L 370 102 Z" fill="#000000" fill-opacity="0.501961" />
<path d="M 324 135 L 278 198 L 293 127 Z" fill="#509d0b" fill-opacity="0.501961" />
<path d="M 32 175 L 177 136 L 44 134 Z" fill="#688a0d" fill-opacity="0.501961" />
<path d="M 425 265 L 479 328 L 357 266 Z" fill="#4a8100" fill-opacity="0.501961" />
<path d="M 378 79 L 413 114 L 442 -16 Z" fill="#ff9c6c" fill-opacity="0.501961" />
<path d="M 486 169 L 477 205 L 451 225 Z" fill="#8ee115" fill-opacity="0.501961" />
<path d="M 497 273 L 472 327 L 498 317 Z" fill="#a7f11f" fill-opacity="0.501961" />
<path d="M 555 235 L 475 202 L 501 155 Z" fill="#0c1000" fill-opacity="0.501961" />
<path d="M -16 76 L 24 -7 L 21 130 Z" fill="#697a00" fill-opacity="0.501961" />
<path d="M 435 120 L 472 155 L 485 108 Z" fill="#000000" fill-opacity="0.501961" />
<path d="M 246 62 L 250 95 L 213 107 Z" fill="#ff345d" fill-opacity="0.501961" />
<path d="M 378 260 L 395 214 L 408 246 Z" fill="#ffdf8f" fill-opacity="0.501961" />
<path d="M 138 26 L 158 82 L 94 72 Z" fill="#a2c5f9" fill-opacity="0.501961" />
<path d="M 181 182 L -16 285 L 287 328 Z" fill="#b3d5ff" fill-opacity="0.501961" />
<path d="M 246 66 L 135 3 L 169 86 Z" fill="#909d3a" fill-opacity="0.501961" />
<path d="M 565 187 L 502 162 L 538 137 Z" fill="#8d9503" fill-opacity="0.501961" />
<path d="M 400 189 L 329 239 L 305 210 Z" fill="#ff8a3b" fill-opacity="0.501961" />
<path d="M 480 222 L 493 225 L 480 234 Z" fill="#ffffff" fill-opacity="0.501961" />
<path d="M 2 129 L 39 132 L -5 207 Z" fill="#aacaff" fill-opacity="0.501961" />
<path d="M 216 160 L 245 149 L 214 97 Z" fill="#fd8350" fill-opacity="0.501961" />
<path d="M 405 117 L 457 69 L 494 105 Z" fill="#ba9e0a" fill-opacity="0.501961" />
<path d="M 478 22 L 483 -15 L 451 13 Z" fill="#172c06" fill-opacity="0.501961" />
<path d="M 144 192 L 43 162 L 158 154 Z" fill="#1e4200" fill-opacity="0.501961" />
<path d="M 293 220 L 363 187 L 353 158 Z" fill="#ffd1b7" fill-opacity="0.501961" />
<path d="M 230 194 L 214 195 L 211 136 Z" fill="#3e6b00" fill-opacity="0.501961" />
<path d="M 5 79 L 42 32 L -16 62 Z" fill="#aeb243" fill-opacity="0.501961" />
<path d="M 615 162 L 568 260 L 594 328 Z" fill="#62842a" fill-opacity="0.501961" />
<path d="M 452 291 L 517 328 L 469 319 Z" fill="#ffffa4" fill-opacity="0.501961" />
<path d="M 528 223 L 547 314 L 598 326 Z" fill="#147600" fill-opacity="0.501961" />
<path d="M 450 244 L 465 223 L 504 248 Z" fill="#011900" fill-opacity="0.501961" />
<path d="M 603 16 L 536 19 L 610 -16 Z" fill="#003a00" fill-opacity="0.501961" />
<path d="M 143 183 L 205 157 L 202 181 Z" fill="#6c8abe" fill-opacity="0.501961" />
<path d="M -7 193 L 51 169 L 72 213 Z" fill="#748d7e" fill-opacity="0.501961" />
<path d="M 497 322 L 499 241 L 538 320 Z" fill="#1a6800" fill-opacity="0.501961" />
<path d="M 138 213 L 90 230 L 172 171 Z" fill="#5e85a6" fill-opacity="0.501961" />
<path d="M 192 129 L 163 52 L 220 109 Z" fill="#a3b660" fill-opacity="0.501961" />
<path d="M 325 254 L 277 229 L 285 300 Z" fill="#ffd8b8" fill-opacity="0.501961" />
<path d="M 215 165 L 254 201 L 336 66 Z" fill="#ffb95d" fill-opacity="0.501961" />
<path d="M 402 308 L 350 323 L 352 209 Z" fill="#a4a732" fill-opacity="0.501961" />
<path d="M 108 203 L 33 211 L 98 222 Z" fill="#435a11" fill-opacity="0.501961" />
<path d="M 256 203 L 270 328 L -16 241 Z" fill="#b5d7ff" fill-opacity="0.501961" />
<path d="M 172 113 L 193 164 L 150 166 Z" fill="#74a10d" fill-opacity="0.501961" />
<path d="M 273 16 L 185 -4 L 302 -16 Z" fill="#716200" fill-opacity="0.501961" />
<path d="M 381 -16 L 392 95 L 365 35 Z" fill="#ff817c" fill-opacity="0.501961" />
<path d="M 418 264 L 443 260 L 460 328 Z" fill="#093600" fill-opacity="0.501961" />
<path d="M -3 129 L 42 105 L 66 141 Z" fill="#7298a2" fill-opacity="0.501961" />
<path d="M 339 120 L 377 82 L 384 95 Z" fill="#000000" fill-opacity="0.501961" />
<path d="M 73 120 L -9 102 L 30 71 Z" fill="#3f5e00" fill-opacity="0.501961" />
<path d="M 534 206 L 549 215 L 552 226 Z" fill="#ffe580" fill-opacity="0.501961" />
<path d="M 255 40 L 255 9 L 206 4 Z" fill="#000000" fill-opacity="0.501961" />
<path d="M 31 26 L 51 12 L 51 82 Z" fill="#a0c2f0" fill-opacity="0.501961" />
<path d="M 455 48 L 421 -16 L 425 72 Z" fill="#ff5645" fill-opacity="0.501961" />
<path d="M 499 144 L 486 143 L 490 167 Z" fill="#ffff9b" fill-opacity="0.501961" />
<path d="M 567 18 L 615 34 L 569 42 Z" fill="#abad54" fill-opacity="0.501961" />
<path d="M 254 47 L 271 116 L 299 31 Z" fill="#ffd8bc" fill-opacity="0.501961" />
<path d="M 281 205 L 303 191 L 305 160 Z" fill="#b0f987" fill-opacity="0.501961" />
<path d="M 321 170 L 318 54 L 370 25 Z" fill="#e96b1a" fill-opacity="0.501961" />
<path d="M 557 100 L 568 60 L 605 108 Z" fill="#800018" fill-opacity="0.501961" />
<path d="M 88 3 L 136 47 L 62 29 Z" fill="#88adbe" fill-opacity="0.501961" />
<path d="M 503 319 L 444 283 L 444 240 Z" fill="#6b8104" fill-opacity="0.501961" />
<path d="M 571 0 L 530 5 L 505 -16 Z" fill="#4796b3" fill-opacity="0.501961" />
<path d="M 129 148 L 140 82 L 115 120 Z" fill="#617f9f" fill-opacity="0.501961" />
<path d="M 381 86 L 404 105 L 377 95 Z" fill="#000000" fill-opacity="0.501961" />
<path d="M 564 184 L 546 164 L 615 114 Z" fill="#f3ad5a" fill-opacity="0.501961" />
<path d="M 117 123 L 89 148 L 83 39 Z" fill="#1f4000" fill-opacity="0.501961" />
<path d="M 411 264 L 447 315 L 424 328 Z" fill="#6ab000" fill-opacity="0.501961" />
<path d="M 207 47 L 112 -8 L 145 -16 Z" fill="#556027" fill-opacity="0.501961" />
<path d="M 523 166 L 498 213 L 574 281 Z" fill="#063600" fill-opacity="0.501961" />
<path d="M 581 195 L 605 140 L 609 176 Z" fill="#002500" fill-opacity="0.501961" />
<path d="M 375 104 L 385 212 L 336 119 Z" fill="#f8575c" fill-opacity="0.501961" />
<path d="M 76 190 L 112 201 L 112 179 Z" fill="#95a980" fill-opacity="0.501961" />
<path d="M 201 6 L 154 6 L 203 29 Z" fill="#8abced" fill-opacity="0.501961" />
<path d="M 355 258 L 332 232 L 319 279 Z" fill="#ffd771" fill-opacity="0.501961" />
<path d="M 29 87 L 84 71 L 62 103 Z" fill="#668678" fill-opacity="0.501961" />
<path d="M 121 163 L 126 203 L 154 168 Z" fill="#000b00" fill-opacity="0.501961" />
<path d="M 246 67 L 255 35 L 211 46 Z" fill="#464700" fill-opacity="0.501961" />
<path d="M 222 81 L 196 60 L 187 93 Z" fill="#496a14" fill-opacity="0.501961" />
<path d="M 283 207 L 194 198 L 264 262 Z" fill="#a6cdff" fill-opacity="0.501961" />
<path d="M 267 300 L 300 312 L 266 261 Z" fill="#ff8c69" fill-opacity="0.501961" />
<path d="M 103 -12 L 18 -6 L 183 29 Z" fill="#a19626" fill-opacity="0.501961" />
<path d="M 258 192 L 246 92 L 233 173 Z" fill="#ffc5a8" fill-opacity="0.501961" />
<path d="M 234 26 L 211 46 L 186 28 Z" fill="#587986" fill-opacity="0.501961" />
<path d="M 489 42 L 492 -8 L 526 16 Z" fill="#c04c36" fill-opacity="0.501961" />
<path d="M 306 175 L 316 228 L 337 121 Z" fill="#ff6d72" fill-opacity="0.501961" />
<path d="M 58 232 L 75 204 L 37 216 Z" fill="#55713f" fill-opacity="0.501961" />
<path d="M 386 272 L 442 208 L 447 256 Z" fill="#beb23d" fill-opacity="0.501961" />
<path d="M 517 150 L 548 133 L 537 151 Z" fill="#93f936" fill-opacity="0.501961" />
<path d="M 497 195 L 487 220 L 538 270 Z" fill="#327f05" fill-opacity="0.501961" />
<path d="M 329 134 L 296 118 L 288 130 Z" fill="#a34200" fill-opacity="0.501961" />
<path d="M 365 125 L 423 112 L 409 197 Z" fill="#e32b2d" fill-opacity="0.501961" />
<path d="M 481 89 L 515 23 L 448 94 Z" fill="#d0b762" fill-opacity="0.501961" />
<path d="M 408 241 L 365 209 L 396 198 Z" fill="#f6af3c" fill-opacity="0.501961" />
<path d="M 378 76 L 409 111 L 437 88 Z" fill="#ffcf55" fill-opacity="0.501961" />
<path d="M 149 24 L 159 92 L 186 65 Z" fill="#739e7d" fill-opacity="0.501961" />
<path d="M 166 120 L 196 134 L 92 176 Z" fill="#447300" fill-opacity="0.501961" />
<path d="M 221 208 L 231 179 L 192 129 Z" fill="#466524" fill-opacity="0.501961" />
<path d="M 477 232 L 482 202 L 434 182 Z" fill="#6b8100" fill-opacity="0.501961" />
<path d="M 365 215 L 376 241 L 388 229 Z" fill="#362f06" fill-opacity="0.501961" />
<path d="M 282 9 L 328 -16 L 352 23 Z" fill="#f8323b" fill-opacity="0.501961" />
<path d="M 61 35 L 50 5 L 78 0 Z" fill="#667c2f" fill-opacity="0.501961" />
<path d="M 291 232 L 282 209 L 304 214 Z" fill="#fbff92" fill-opacity="0.501961" />
<path d="M 615 197 L 604 255 L 563 182 Z" fill="#44670e" fill-opacity="0.501961" />
<path d="M 554 115 L 563 157 L 615 118 Z" fill="#d45240" fill-opacity="0.501961" />
<path d="M 461 218 L 395 208 L 457 173 Z" fill="#a7670e" fill-opacity="0.501961" />
<path d="M 375 71 L 367 48 L 349 116 Z" fill="#983700" fill-opacity="0.501961" />
<path d="M 46 115 L 90 151 L 79 163 Z" fill="#8d982a" fill-opacity="0.501961" />
<path d="M 140 137 L 179 91 L 134 107 Z" fill="#a8cdff" fill-opacity="0.501961" />
<path d="M 288 210 L 302 187 L 309 212 Z" fill="#898d00" fill-opacity="0.501961" />
<path d="M 497 248 L 480 328 L 505 328 Z" fill="#73a61c" fill-opacity="0.501961" />
<path d="M 515 148 L 557 90 L 488 139 Z" fill="#0c4300" fill-opacity="0.501961" />
<path d="M 21 15 L 29 78 L 42 35 Z" fill="#608975" fill-opacity="0.501961" />
<path d="M 280 305 L 289 208 L 267 253 Z" fill="#ffa18f" fill-opacity="0.501961" />
<path d="M 244 4 L 189 2 L 180 -16 Z" fill="#c8ae13" fill-opacity="0.501961" />
<path d="M 615 138 L 604 62 L 581 68 Z" fill="#001000" fill-opacity="0.501961" />
<path d="M 115 82 L 124 21 L 91 73 Z" fill="#718e9a" fill-opacity="0.501961" />
<path d="M 277 10 L 305 10 L 257 44 Z" fill="#ff6b6b" fill-opacity="0.501961" />
<path d="M 300 241 L 299 218 L 330 249 Z" fill="#7a9200" fill-opacity="0.501961" />
<path d="M 277 204 L 256 199 L 298 177 Z" fill="#bd7c02" fill-opacity="0.501961" />
<path d="M 62 60 L 84 13 L 90 39 Z" fill="#a2a547" fill-opacity="0.501961" />
<path d="M 375 258 L 407 234 L 375 245 Z" fill="#ffdea8" fill-opacity="0.501961" />
<path d="M 578 66 L 567 36 L 615 53 Z" fill="#4f7a1b" fill-opacity="0.501961" />
<path d="M 83 138 L 49 116 L 130 100 Z" fill="#1c3f00" fill-opacity="0.501961" />
<path d="M 31 109 L 16 92 L 12 127 Z" fill="#253b05" fill-opacity="0.501961" />
<path d="M 410 301 L 422 316 L 414 290 Z" fill="#000000" fill-opacity="0.501961" />
<path d="M 421 17 L 371 2 L 430 -16 Z" fill="#ff9393" fill-opacity="0.501961" />
<path d="M 216 104 L 259 86 L 212 139 Z" fill="#ff8f9b" fill-opacity="0.501961" />
<path d="M 82 39 L 80 94 L 104 44 Z" fill="#315514" fill-opacity="0.501961" />
<path d="M 288 10 L 318 104 L 331 45 Z" fill="#ff8f6d" fill-opacity="0.501961" />
<path d="M 119 0 L 171 11 L 210 -16 Z" fill="#425838" fill-opacity="0.501961" />
<path d="M 255 101 L 249 147 L 277 129 Z" fill="#ff7d7c" fill-opacity="0.501961" />
<path d="M 293 112 L 250 200 L 286 162 Z" fill="#e5cb42" fill-opacity="0.501961" />
<path d="M 2 328 L -16 207 L 292 319 Z" fill="#b6d7ff" fill-opacity="0.501961" />
<path d="M 121 187 L 54 144 L 31 160 Z" fill="#4d7600" fill-opacity="0.501961" />
<path d="M 28 14 L 44 54 L 72 43 Z" fill="#a8c4eb" fill-opacity="0.501961" />
<path d="M 225 150 L 241 153 L 227 133 Z" fill="#a98106" fill-opacity="0.501961" />
<path d="M 26 178 L 45 105 L -16 171 Z" fill="#a3c3f8" fill-opacity="0.501961" />
<path d="M 110 156 L 162 127 L 102 141 Z" fill="#819b69" fill-opacity="0.501961" />
<path d="M 541 12 L 558 31 L 557 56 Z" fill="#8ac426" fill-opacity="0.501961" />
<path d="M 365 17 L 374 -9 L 340 -16 Z" fill="#550900" fill-opacity="0.501961" />
<path d="M 208 185 L 191 197 L 231 213 Z" fill="#8cb4ee" fill-opacity="0.501961" />
<path d="M 234 75 L 214 23 L 234 23 Z" fill="#787620" fill-opacity="0.501961" />
<path d="M 478 164 L 546 174 L 537 147 Z" fill="#6e6901" fill-opacity="0.501961" />
<path d="M 50 186 L 64 214 L 32 196 Z" fill="#91a49b" fill-opacity="0.501961" />
<path d="M 349 246 L 343 223 L 379 211 Z" fill="#a48a0b" fill-opacity="0.501961" />
<path d="M 459 306 L 491 316 L 448 286 Z" fill="#ffff99" fill-opacity="0.501961" />
<path d="M 312 111 L 326 135 L 364 85 Z" fill="#e88300" fill-opacity="0.501961" />
<path d="M 299 -13 L 236 0 L 281 6 Z" fill="#133600" fill-opacity="0.501961" />
<path d="M 498 166 L 578 241 L 544 177 Z" fill="#0b3f00" fill-opacity="0.501961" />
<path d="M 483 152 L 500 121 L 483 88 Z" fill="#4e8902" fill-opacity="0.501961" />
<path d="M 284 222 L 297 190 L 279 210 Z" fill="#a7d059" fill-opacity="0.501961" />
<path d="M 545 300 L 544 328 L 518 274 Z" fill="#aad908" fill-opacity="0.501961" />
<path d="M 457 118 L 490 102 L 423 113 Z" fill="#927900" fill-opacity="0.501961" />
<path d="M 485 103 L 526 -9 L 531 91 Z" fill="#587435" fill-opacity="0.501961" />
<path d="M 278 10 L 267 24 L 235 -8 Z" fill="#896200" fill-opacity="0.501961" />
<path d="M 350 278 L 319 260 L 277 328 Z" fill="#ff8c4d" fill-opacity="0.501961" />
<path d="M 47 17 L 21 -3 L 16 11 Z" fill="#104809" fill-opacity="0.501961" />
<path d="M 425 257 L 313 328 L 363 269 Z" fill="#9c8928" fill-opacity="0.501961" />
<path d="M 32 107 L 35 87 L 67 139 Z" fill="#79904e" fill-opacity="0.501961" />
<path d="M 385 89 L 432 53 L 368 46 Z" fill="#ff8f6d" fill-opacity="0.501961" />
<path d="M 248 86 L 275 123 L 321 77 Z" fill="#ffd382" fill-opacity="0.501961" />
<path d="M 54 265 L 198 247 L 176 178 Z" fill="#adcfff" fill-opacity="0.501961" />
<path d="M 5 34 L 18 -16 L -16 17 Z" fill="#aba33e" fill-opacity="0.501961" />
<path d="M 477 116 L 471 145 L 429 117 Z" fill="#000000" fill-opacity="0.501961" />
<path d="M 553 20 L 574 5 L 531 4 Z" fill="#003500" fill-opacity="0.501961" />
<path d="M 15 185 L 29 207 L 45 174 Z" fill="#5a7c4b" fill-opacity="0.501961" />
<path d="M 368 59 L 332 40 L 366 9 Z" fill="#cd2904" fill-opacity="0.501961" />
<path d="M 561 55 L 558 44 L 585 43 Z" fill="#001700" fill-opacity="0.501961" />
<path d="M 272 215 L 104 236 L 259 321 Z" fill="#b9dbff" fill-opacity="0.501961" />
<path d="M 23 181 L 38 179 L 37 128 Z" fill="#6f94b8" fill-opacity="0.501961" />
<path d="M 486 296 L 459 283 L 495 222 Z" fill="#244800" fill-opacity="0.501961" />
<path d="M 469 45 L 507 26 L 438 7 Z" fill="#93211a" fill-opacity="0.501961" />
<path d="M 599 134 L 593 182 L 615 219 Z" fill="#001e00" fill-opacity="0.501961" />
<path d="M 491 5 L 500 15 L 500 -16 Z" fill="#ff7b52" fill-opacity="0.501961" />
<path d="M 245 74 L 257 117 L 257 40 Z" fill="#ff9894" fill-opacity="0.501961" />
<path d="M 579 184 L 549 178 L 581 152 Z" fill="#d7ce57" fill-opacity="0.501961" />
<path d="M 415 44 L 413 2 L 382 13 Z" fill="#ffd8ca" fill-opacity="0.501961" />
<path d="M 192 157 L 186 135 L 215 150 Z" fill="#2e4700" fill-opacity="0.501961" />
<path d="M 297 164 L 305 181 L 309 159 Z" fill="#bee195" fill-opacity="0.501961" />
<path d="M 335 172 L 339 200 L 359 182 Z" fill="#fee5cf" fill-opacity="0.501961" />
<path d="M 479 182 L 490 169 L 492 154 Z" fill="#cdef4b" fill-opacity="0.501961" />
<path d="M 556 42 L 517 -16 L 557 105 Z" fill="#256307" fill-opacity="0.501961" />
<path d="M 462 204 L 476 147 L 477 181 Z" fill="#1e2203" fill-opacity="0.501961" />
<path d="M 57 191 L 83 197 L 84 172 Z" fill="#47850e" fill-opacity="0.501961" />
<path d="M 556 32 L 540 9 L 543 25 Z" fill="#bfd354" fill-opacity="0.501961" />
<path d="M 461 141 L 467 204 L 409 108 Z" fill="#883901" fill-opacity="0.501961" />
<path d="M 231 192 L 272 205 L 215 206 Z" fill="#6c90ba" fill-opacity="0.501961" />
<path d="M 323 241 L 408 251 L 382 266 Z" fill="#f3ab48" fill-opacity="0.501961" />
<path d="M 226 109 L 244 128 L 256 108 Z" fill="#ffded7" fill-opacity="0.501961" />
<path d="M 59 89 L 83 66 L 64 49 Z" fill="#879a99" fill-opacity="0.501961" />
<path d="M 564 117 L 546 169 L 525 165 Z" fill="#bc780a" fill-opacity="0.501961" />
<path d="M 150 9 L 242 73 L 188 56 Z" fill="#ab9129" fill-opacity="0.501961" />
<path d="M 479 198 L 490 170 L 492 223 Z" fill="#200001" fill-opacity="0.501961" />
<path d="M 527 19 L 520 -7 L 469 56 Z" fill="#9c4930" fill-opacity="0.501961" />
<path d="M 378 80 L 357 108 L 392 99 Z" fill="#000000" fill-opacity="0.501961" />
<path d="M 29 72 L 33 52 L 50 83 Z" fill="#6b9fce" fill-opacity="0.501961" />
<path d="M 123 111 L 147 90 L 110 77 Z" fill="#51696c" fill-opacity="0.501961" />
</g>
</svg>
