<svg version="1.1" width="535" height="720" xmlns="http://www.w3.org/2000/svg">
<rect x="0" y="0" width="535" height="720" fill="#004400" />
<g transform="scale(1, 1)">
<path d="M 212 708 L 250 476 L 345 707 Z" fill="#ff3a00" fill-opacity="0.501961" />
<path d="M 351 281 L 415 377 L 483 277 Z" fill="#ff0400" fill-opacity="0.501961" />
<path d="M 273 185 L 199 267 L 311 288 Z" fill="#ff0800" fill-opacity="0.501961" />
<path d="M 307 131 L 403 191 L 411 81 Z" fill="#ff0c00" fill-opacity="0.501961" />
<path d="M 353 407 L 275 457 L 271 363 Z" fill="#ff0100" fill-opacity="0.501961" />
<path d="M -3 300 L 1 735 L 257 664 Z" fill="#010000" fill-opacity="0.501961" />
<path d="M 534 735 L 284 659 L 534 249 Z" fill="#010000" fill-opacity="0.501961" />
<path d="M 167 109 L 90 152 L 163 196 Z" fill="#ff0200" fill-opacity="0.501961" />
<path d="M 335 349 L 30 94 L 88 505 Z" fill="#0faf00" fill-opacity="0.501961" />
<path d="M 91 92 L 397 292 L 292 15 Z" fill="#00b800" fill-opacity="0.501961" />
<path d="M 165 307 L 126 365 L 98 297 Z" fill="#ff0000" fill-opacity="0.501961" />
<path d="M 438 123 L 232 323 L 533 249 Z" fill="#00b100" fill-opacity="0.501961" />
<path d="M 465 348 L 368 343 L 415 253 Z" fill="#ff0000" fill-opacity="0.501961" />
<path d="M 500 420 L 181 515 L 484 317 Z" fill="#00ba00" fill-opacity="0.501961" />
<path d="M 233 524 L 234 735 L 321 535 Z" fill="#de4300" fill-opacity="0.501961" />
<path d="M 310 231 L 224 209 L 246 294 Z" fill="#ff0000" fill-opacity="0.501961" />
<path d="M 426 139 L 354 93 L 346 182 Z" fill="#ff0000" fill-opacity="0.501961" />
<path d="M 322 366 L 254 407 L 318 450 Z" fill="#ff0000" fill-opacity="0.501961" />
<path d="M 545 -9 L 550 286 L 392 -16 Z" fill="#000000" fill-opacity="0.501961" />
<path d="M 208 -2 L -7 -13 L -16 176 Z" fill="#000000" fill-opacity="0.501961" />
<path d="M 304 532 L 417 439 L 61 434 Z" fill="#009e00" fill-opacity="0.501961" />
<path d="M 287 548 L 526 735 L 550 372 Z" fill="#000000" fill-opacity="0.501961" />
<path d="M 7 735 L 252 562 L -16 390 Z" fill="#010000" fill-opacity="0.501961" />
<path d="M 136 188 L 438 27 L 208 245 Z" fill="#009e00" fill-opacity="0.501961" />
<path d="M 115 191 L 183 152 L 129 113 Z" fill="#ff0000" fill-opacity="0.501961" />
<path d="M 307 44 L 451 55 L 460 151 Z" fill="#00b000" fill-opacity="0.501961" />
<path d="M 533 -16 L 550 85 L 173 0 Z" fill="#000000" fill-opacity="0.501961" />
<path d="M 492 416 L 344 443 L 284 272 Z" fill="#009d00" fill-opacity="0.501961" />
<path d="M 232 497 L 232 672 L -16 469 Z" fill="#000000" fill-opacity="0.501961" />
<path d="M 527 252 L 469 337 L 438 261 Z" fill="#00b700" fill-opacity="0.501961" />
<path d="M 181 272 L 8 355 L 63 79 Z" fill="#008e00" fill-opacity="0.501961" />
<path d="M 274 568 L 205 708 L 337 707 Z" fill="#c84b00" fill-opacity="0.501961" />
<path d="M 550 711 L 296 513 L 339 735 Z" fill="#020000" fill-opacity="0.501961" />
<path d="M -16 321 L 9 -16 L 48 189 Z" fill="#000000" fill-opacity="0.501961" />
<path d="M 98 336 L 157 340 L 134 291 Z" fill="#ff0000" fill-opacity="0.501961" />
<path d="M 208 719 L 220 485 L -16 723 Z" fill="#020000" fill-opacity="0.501961" />
<path d="M 148 307 L 342 396 L 396 252 Z" fill="#008a00" fill-opacity="0.501961" />
<path d="M 390 359 L 461 298 L 383 274 Z" fill="#ff0000" fill-opacity="0.501961" />
<path d="M 136 71 L 209 1 L 466 109 Z" fill="#009100" fill-opacity="0.501961" />
<path d="M 395 174 L 331 137 L 399 101 Z" fill="#ff0000" fill-opacity="0.501961" />
<path d="M 283 209 L 285 278 L 221 250 Z" fill="#ff0000" fill-opacity="0.501961" />
<path d="M 271 301 L 481 261 L 351 162 Z" fill="#008100" fill-opacity="0.501961" />
<path d="M 85 469 L 273 290 L 260 506 Z" fill="#008900" fill-opacity="0.501961" />
<path d="M 458 303 L 448 348 L 392 356 Z" fill="#ff0000" fill-opacity="0.501961" />
</g>
</svg>
