<svg version="1.1" width="473" height="366" xmlns="http://www.w3.org/2000/svg">
<rect x="0" y="0" width="473" height="366" fill="#b5bb9f" />
<g transform="scale(1, 1)">
<path d="M 22 256 L 488 211 L 213 -16 Z" fill="#445914" fill-opacity="0.501961" />
<path d="M -16 208 L 488 355 L 0 381 Z" fill="#ffffff" fill-opacity="0.501961" />
<path d="M 246 293 L 488 198 L 469 381 Z" fill="#ffffff" fill-opacity="0.501961" />
<path d="M 488 0 L 173 -3 L 488 92 Z" fill="#ffffff" fill-opacity="0.501961" />
<path d="M 272 356 L 259 210 L 230 356 Z" fill="#190000" fill-opacity="0.501961" />
<path d="M -12 101 L 276 -16 L -1 -2 Z" fill="#ffffff" fill-opacity="0.501961" />
<path d="M 248 8 L 463 215 L 458 99 Z" fill="#516321" fill-opacity="0.501961" />
<path d="M 185 26 L 6 130 L 52 212 Z" fill="#4b651c" fill-opacity="0.501961" />
<path d="M -14 220 L 249 315 L 3 381 Z" fill="#ffffff" fill-opacity="0.501961" />
<path d="M 162 258 L 442 238 L 342 195 Z" fill="#645825" fill-opacity="0.501961" />
<path d="M 488 241 L 260 263 L 458 381 Z" fill="#ffffff" fill-opacity="0.501961" />
<path d="M 287 248 L 244 304 L 225 252 Z" fill="#3e1b10" fill-opacity="0.501961" />
<path d="M 483 -16 L 473 118 L 316 -7 Z" fill="#ffffff" fill-opacity="0.501961" />
<path d="M 311 355 L 168 351 L 254 326 Z" fill="#4e4300" fill-opacity="0.501961" />
<path d="M 85 -16 L -16 19 L 83 101 Z" fill="#ffffff" fill-opacity="0.501961" />
<path d="M 0 215 L -16 261 L 86 209 Z" fill="#ffffff" fill-opacity="0.501961" />
<path d="M 101 238 L 39 227 L 33 258 Z" fill="#624700" fill-opacity="0.501961" />
<path d="M 18 189 L -1 82 L -16 237 Z" fill="#ffffff" fill-opacity="0.501961" />
<path d="M 117 381 L 199 263 L -16 257 Z" fill="#ffffff" fill-opacity="0.501961" />
<path d="M 64 77 L 156 43 L 116 24 Z" fill="#66874a" fill-opacity="0.501961" />
<path d="M 228 238 L 180 191 L 212 204 Z" fill="#ffffff" fill-opacity="0.501961" />
<path d="M 233 192 L 343 200 L 264 223 Z" fill="#e2d2d5" fill-opacity="0.501961" />
<path d="M 265 329 L 451 381 L 271 261 Z" fill="#ffffff" fill-opacity="0.501961" />
<path d="M 131 153 L 137 192 L 98 129 Z" fill="#ffffff" fill-opacity="0.501961" />
<path d="M 179 257 L 83 132 L 127 254 Z" fill="#536228" fill-opacity="0.501961" />
<path d="M 278 35 L 253 52 L 204 -16 Z" fill="#f8ffdb" fill-opacity="0.501961" />
<path d="M 37 135 L 93 211 L 14 198 Z" fill="#43601d" fill-opacity="0.501961" />
<path d="M 79 100 L 62 74 L 114 109 Z" fill="#ffffff" fill-opacity="0.501961" />
<path d="M 232 -16 L -3 -16 L -4 74 Z" fill="#ffffff" fill-opacity="0.501961" />
<path d="M 396 52 L 347 22 L 344 37 Z" fill="#48661b" fill-opacity="0.501961" />
<path d="M 455 156 L 488 91 L 472 232 Z" fill="#ffffff" fill-opacity="0.501961" />
<path d="M 264 30 L 313 20 L 343 48 Z" fill="#4a6c29" fill-opacity="0.501961" />
<path d="M 483 111 L 488 131 L 429 113 Z" fill="#ffffff" fill-opacity="0.501961" />
<path d="M 250 139 L 223 180 L 232 140 Z" fill="#ffffff" fill-opacity="0.501961" />
<path d="M 244 270 L 184 260 L 246 289 Z" fill="#351518" fill-opacity="0.501961" />
<path d="M 93 237 L 248 309 L -16 381 Z" fill="#ffffff" fill-opacity="0.501961" />
<path d="M 367 71 L 359 35 L 334 43 Z" fill="#ffffff" fill-opacity="0.501961" />
<path d="M 86 164 L 62 180 L 84 149 Z" fill="#ffffff" fill-opacity="0.501961" />
<path d="M 39 98 L 60 114 L 60 70 Z" fill="#274f05" fill-opacity="0.501961" />
<path d="M 488 264 L 281 257 L 332 352 Z" fill="#ffffff" fill-opacity="0.501961" />
<path d="M 43 131 L -6 95 L 26 139 Z" fill="#ffffff" fill-opacity="0.501961" />
<path d="M 88 61 L 152 48 L 132 64 Z" fill="#ffffff" fill-opacity="0.501961" />
<path d="M 270 7 L 242 16 L 229 71 Z" fill="#6a6e03" fill-opacity="0.501961" />
<path d="M 374 345 L 297 347 L 346 366 Z" fill="#d6665a" fill-opacity="0.501961" />
<path d="M 411 142 L 473 168 L 448 177 Z" fill="#174400" fill-opacity="0.501961" />
<path d="M 78 65 L 118 117 L 124 63 Z" fill="#4d4d17" fill-opacity="0.501961" />
<path d="M 319 131 L 355 110 L 313 190 Z" fill="#144008" fill-opacity="0.501961" />
<path d="M 289 177 L 257 213 L 254 114 Z" fill="#4c421e" fill-opacity="0.501961" />
<path d="M 201 170 L 178 182 L 229 218 Z" fill="#242010" fill-opacity="0.501961" />
<path d="M 183 160 L 234 173 L 204 177 Z" fill="#f8f8ff" fill-opacity="0.501961" />
<path d="M 442 107 L 468 63 L 369 135 Z" fill="#608b3b" fill-opacity="0.501961" />
<path d="M 274 335 L 488 359 L 364 235 Z" fill="#ffffff" fill-opacity="0.501961" />
<path d="M 176 259 L 234 283 L 182 376 Z" fill="#ffffff" fill-opacity="0.501961" />
<path d="M 265 209 L 319 212 L 299 254 Z" fill="#29551f" fill-opacity="0.501961" />
<path d="M 488 381 L 356 368 L 488 182 Z" fill="#ffffff" fill-opacity="0.501961" />
<path d="M 230 47 L 264 91 L 211 106 Z" fill="#3f4122" fill-opacity="0.501961" />
<path d="M 163 210 L 172 198 L 128 204 Z" fill="#fffffd" fill-opacity="0.501961" />
<path d="M 235 237 L 251 260 L 251 246 Z" fill="#ffffff" fill-opacity="0.501961" />
<path d="M 14 82 L 50 93 L 4 64 Z" fill="#47740b" fill-opacity="0.501961" />
<path d="M 159 351 L 153 333 L 141 345 Z" fill="#b60000" fill-opacity="0.501961" />
<path d="M 411 183 L 406 168 L 370 159 Z" fill="#ffffff" fill-opacity="0.501961" />
<path d="M 425 250 L 436 262 L 436 240 Z" fill="#264900" fill-opacity="0.501961" />
<path d="M 341 183 L 387 260 L 407 115 Z" fill="#4b6d31" fill-opacity="0.501961" />
<path d="M 218 61 L 239 29 L 202 17 Z" fill="#d0ecb8" fill-opacity="0.501961" />
<path d="M 488 -14 L 478 71 L 252 -10 Z" fill="#ffffff" fill-opacity="0.501961" />
<path d="M 407 67 L 372 63 L 343 103 Z" fill="#433d0a" fill-opacity="0.501961" />
<path d="M 180 204 L 191 222 L 180 232 Z" fill="#ffffff" fill-opacity="0.501961" />
<path d="M 305 153 L 298 215 L 282 179 Z" fill="#54320c" fill-opacity="0.501961" />
<path d="M -7 381 L -2 300 L 218 371 Z" fill="#ffffff" fill-opacity="0.501961" />
<path d="M 322 227 L 347 224 L 349 216 Z" fill="#ffffff" fill-opacity="0.501961" />
<path d="M 238 84 L 246 108 L 232 105 Z" fill="#ffffff" fill-opacity="0.501961" />
<path d="M 287 190 L 292 204 L 253 210 Z" fill="#ffffff" fill-opacity="0.501961" />
<path d="M 8 100 L 19 116 L 28 99 Z" fill="#073400" fill-opacity="0.501961" />
<path d="M 25 83 L -10 -16 L 180 -15 Z" fill="#ffffff" fill-opacity="0.501961" />
<path d="M 162 96 L 166 137 L 153 103 Z" fill="#ffffff" fill-opacity="0.501961" />
<path d="M 230 118 L 145 170 L 229 161 Z" fill="#41612e" fill-opacity="0.501961" />
<path d="M 339 146 L 333 200 L 345 171 Z" fill="#fdfffd" fill-opacity="0.501961" />
<path d="M 205 259 L 197 218 L 243 247 Z" fill="#713019" fill-opacity="0.501961" />
<path d="M 120 101 L 141 77 L 120 131 Z" fill="#e8fcea" fill-opacity="0.501961" />
<path d="M 7 227 L 82 205 L 61 228 Z" fill="#ffffff" fill-opacity="0.501961" />
<path d="M 301 172 L 314 180 L 314 155 Z" fill="#ffffff" fill-opacity="0.501961" />
<path d="M 466 98 L 444 100 L 451 114 Z" fill="#093500" fill-opacity="0.501961" />
<path d="M 320 61 L 301 104 L 322 100 Z" fill="#083309" fill-opacity="0.501961" />
<path d="M 388 144 L 360 117 L 389 115 Z" fill="#c6ec97" fill-opacity="0.501961" />
<path d="M 249 356 L 331 354 L 331 381 Z" fill="#ffffff" fill-opacity="0.501961" />
<path d="M 175 336 L 166 349 L 180 355 Z" fill="#c30000" fill-opacity="0.501961" />
<path d="M 150 232 L 156 243 L 164 212 Z" fill="#ffffff" fill-opacity="0.501961" />
<path d="M 265 254 L 266 344 L 235 334 Z" fill="#623d28" fill-opacity="0.501961" />
<path d="M -16 214 L 21 198 L -5 89 Z" fill="#ffffff" fill-opacity="0.501961" />
<path d="M 425 94 L 425 109 L 387 77 Z" fill="#fcffe9" fill-opacity="0.501961" />
<path d="M 236 25 L 196 -16 L 270 -10 Z" fill="#ffffff" fill-opacity="0.501961" />
<path d="M 356 258 L 355 364 L 270 271 Z" fill="#ffffff" fill-opacity="0.501961" />
<path d="M 302 130 L 318 149 L 301 145 Z" fill="#ffffff" fill-opacity="0.501961" />
<path d="M 237 328 L 118 340 L 242 292 Z" fill="#ffffff" fill-opacity="0.501961" />
<path d="M 85 90 L 100 100 L 68 105 Z" fill="#ffffff" fill-opacity="0.501961" />
<path d="M 137 218 L 130 184 L 149 220 Z" fill="#f6fcff" fill-opacity="0.501961" />
<path d="M 142 260 L 178 252 L 166 238 Z" fill="#47350e" fill-opacity="0.501961" />
<path d="M 189 34 L 183 22 L 180 35 Z" fill="#ffffff" fill-opacity="0.501961" />
<path d="M 224 358 L 191 345 L 253 330 Z" fill="#4f6816" fill-opacity="0.501961" />
<path d="M 208 264 L 220 252 L 237 267 Z" fill="#ffffff" fill-opacity="0.501961" />
<path d="M 124 26 L 139 52 L 110 26 Z" fill="#001f00" fill-opacity="0.501961" />
<path d="M 311 107 L 322 110 L 335 97 Z" fill="#ffffff" fill-opacity="0.501961" />
<path d="M 66 159 L 32 117 L 116 132 Z" fill="#695928" fill-opacity="0.501961" />
<path d="M 176 229 L 168 241 L 214 269 Z" fill="#e4ffce" fill-opacity="0.501961" />
<path d="M 127 35 L 180 44 L 142 15 Z" fill="#ffffff" fill-opacity="0.501961" />
<path d="M 328 348 L 313 340 L 314 357 Z" fill="#b50b00" fill-opacity="0.501961" />
<path d="M 364 92 L 370 129 L 397 67 Z" fill="#be4638" fill-opacity="0.501961" />
<path d="M 284 131 L 278 64 L 308 40 Z" fill="#37661c" fill-opacity="0.501961" />
<path d="M 154 237 L 183 226 L 165 219 Z" fill="#002601" fill-opacity="0.501961" />
<path d="M 111 233 L 103 221 L 129 237 Z" fill="#ffffff" fill-opacity="0.501961" />
<path d="M 166 264 L 200 207 L 212 221 Z" fill="#48691c" fill-opacity="0.501961" />
<path d="M 104 26 L 113 44 L 142 57 Z" fill="#ffffff" fill-opacity="0.501961" />
<path d="M 388 252 L 424 229 L 348 221 Z" fill="#9e722b" fill-opacity="0.501961" />
<path d="M 431 244 L 451 208 L 488 257 Z" fill="#ffffff" fill-opacity="0.501961" />
<path d="M 35 180 L 48 193 L 26 185 Z" fill="#ffffff" fill-opacity="0.501961" />
<path d="M 314 245 L 328 260 L 315 258 Z" fill="#0e3300" fill-opacity="0.501961" />
<path d="M 488 354 L 273 338 L 415 234 Z" fill="#ffffff" fill-opacity="0.501961" />
<path d="M 412 181 L 399 165 L 373 159 Z" fill="#ffffff" fill-opacity="0.501961" />
<path d="M 163 168 L 179 149 L 143 138 Z" fill="#152b0d" fill-opacity="0.501961" />
<path d="M 107 245 L 133 255 L 154 230 Z" fill="#926618" fill-opacity="0.501961" />
<path d="M 177 59 L 236 175 L 163 123 Z" fill="#577e2f" fill-opacity="0.501961" />
<path d="M 17 122 L 24 131 L -13 129 Z" fill="#316300" fill-opacity="0.501961" />
<path d="M 385 221 L 417 224 L 408 206 Z" fill="#d8e8e8" fill-opacity="0.501961" />
<path d="M 14 190 L 29 184 L 20 163 Z" fill="#bf1a05" fill-opacity="0.501961" />
<path d="M 298 86 L 304 92 L 315 74 Z" fill="#ffffff" fill-opacity="0.501961" />
<path d="M 137 173 L 106 130 L 109 155 Z" fill="#ffffff" fill-opacity="0.501961" />
<path d="M 220 233 L 227 225 L 197 199 Z" fill="#ffffff" fill-opacity="0.501961" />
<path d="M 254 167 L 262 191 L 270 175 Z" fill="#ff4e4a" fill-opacity="0.501961" />
<path d="M 348 39 L 343 28 L 362 27 Z" fill="#001b00" fill-opacity="0.501961" />
<path d="M 398 217 L 380 192 L 409 215 Z" fill="#002900" fill-opacity="0.501961" />
<path d="M 109 56 L 109 69 L 81 58 Z" fill="#ffffff" fill-opacity="0.501961" />
<path d="M 363 165 L 369 177 L 365 183 Z" fill="#ffffff" fill-opacity="0.501961" />
<path d="M 318 192 L 303 213 L 317 207 Z" fill="#ffffff" fill-opacity="0.501961" />
<path d="M 203 169 L 209 148 L 212 178 Z" fill="#ffffff" fill-opacity="0.501961" />
<path d="M 57 90 L 92 76 L 71 69 Z" fill="#ffffff" fill-opacity="0.501961" />
<path d="M 433 219 L 411 154 L 414 221 Z" fill="#4c5416" fill-opacity="0.501961" />
<path d="M 193 -6 L 223 39 L 232 25 Z" fill="#5b9213" fill-opacity="0.501961" />
<path d="M 6 121 L 10 13 L -16 76 Z" fill="#ffffff" fill-opacity="0.501961" />
<path d="M 267 264 L 293 255 L 269 242 Z" fill="#333b0b" fill-opacity="0.501961" />
<path d="M 171 194 L 182 172 L 192 218 Z" fill="#9b1717" fill-opacity="0.501961" />
<path d="M 274 122 L 283 106 L 249 98 Z" fill="#b90c0b" fill-opacity="0.501961" />
<path d="M 308 139 L 403 150 L 293 100 Z" fill="#476f1f" fill-opacity="0.501961" />
<path d="M 153 178 L 167 170 L 183 184 Z" fill="#ffd9ea" fill-opacity="0.501961" />
<path d="M 214 75 L 233 81 L 218 98 Z" fill="#ff3b37" fill-opacity="0.501961" />
<path d="M 235 141 L 248 125 L 229 119 Z" fill="#ff1f25" fill-opacity="0.501961" />
<path d="M 64 165 L 68 179 L 83 163 Z" fill="#ffffff" fill-opacity="0.501961" />
<path d="M 112 115 L 99 97 L 60 155 Z" fill="#d2cd92" fill-opacity="0.501961" />
<path d="M 488 2 L 324 -16 L 429 89 Z" fill="#ffffff" fill-opacity="0.501961" />
<path d="M 4 -16 L -16 44 L 53 94 Z" fill="#ffffff" fill-opacity="0.501961" />
<path d="M 114 106 L 122 75 L 131 93 Z" fill="#083807" fill-opacity="0.501961" />
<path d="M 272 47 L 269 70 L 276 57 Z" fill="#ffffff" fill-opacity="0.501961" />
<path d="M 338 67 L 345 55 L 363 67 Z" fill="#001b00" fill-opacity="0.501961" />
<path d="M 26 115 L 35 96 L 45 113 Z" fill="#ffffff" fill-opacity="0.501961" />
<path d="M 330 102 L 323 75 L 342 86 Z" fill="#ff323e" fill-opacity="0.501961" />
<path d="M 414 72 L 424 82 L 408 84 Z" fill="#153200" fill-opacity="0.501961" />
<path d="M 449 138 L 469 128 L 457 122 Z" fill="#1f5300" fill-opacity="0.501961" />
<path d="M 450 161 L 487 107 L 486 159 Z" fill="#ffffff" fill-opacity="0.501961" />
<path d="M 356 81 L 352 72 L 339 81 Z" fill="#ffffff" fill-opacity="0.501961" />
<path d="M 210 271 L 181 257 L 192 255 Z" fill="#050000" fill-opacity="0.501961" />
<path d="M 302 241 L 319 246 L 303 253 Z" fill="#ffffff" fill-opacity="0.501961" />
<path d="M 406 115 L 391 90 L 391 103 Z" fill="#ffffff" fill-opacity="0.501961" />
<path d="M 447 124 L 478 108 L 443 115 Z" fill="#ffffff" fill-opacity="0.501961" />
<path d="M 128 51 L 156 59 L 159 51 Z" fill="#ffffff" fill-opacity="0.501961" />
<path d="M 351 344 L 365 356 L 369 344 Z" fill="#ab1500" fill-opacity="0.501961" />
<path d="M 328 355 L 324 240 L 373 338 Z" fill="#ffffff" fill-opacity="0.501961" />
<path d="M 311 198 L 293 210 L 288 188 Z" fill="#c40d0e" fill-opacity="0.501961" />
<path d="M 59 129 L 52 105 L 45 115 Z" fill="#eae8f5" fill-opacity="0.501961" />
<path d="M 348 238 L 354 254 L 332 237 Z" fill="#ffffff" fill-opacity="0.501961" />
<path d="M 34 239 L 45 239 L 56 260 Z" fill="#ffffff" fill-opacity="0.501961" />
<path d="M 146 107 L 140 102 L 149 88 Z" fill="#ffffff" fill-opacity="0.501961" />
<path d="M 284 360 L 181 381 L 103 349 Z" fill="#ffffff" fill-opacity="0.501961" />
<path d="M 45 227 L 54 255 L 66 248 Z" fill="#a60b00" fill-opacity="0.501961" />
<path d="M 453 95 L 444 78 L 486 104 Z" fill="#ffffff" fill-opacity="0.501961" />
<path d="M 68 179 L 35 169 L 57 151 Z" fill="#0d270a" fill-opacity="0.501961" />
<path d="M 365 68 L 340 48 L 374 61 Z" fill="#ffffff" fill-opacity="0.501961" />
<path d="M 159 95 L 154 72 L 176 89 Z" fill="#ec1c1c" fill-opacity="0.501961" />
<path d="M 166 31 L 151 28 L 158 10 Z" fill="#79b71e" fill-opacity="0.501961" />
<path d="M 142 -16 L 201 20 L 202 -6 Z" fill="#ffffff" fill-opacity="0.501961" />
<path d="M 171 23 L 201 53 L 169 55 Z" fill="#30542d" fill-opacity="0.501961" />
<path d="M 409 119 L 418 122 L 401 146 Z" fill="#e6f0f6" fill-opacity="0.501961" />
<path d="M -10 140 L 23 156 L -5 188 Z" fill="#ffffff" fill-opacity="0.501961" />
<path d="M 423 106 L 401 90 L 422 158 Z" fill="#39592a" fill-opacity="0.501961" />
<path d="M 131 168 L 78 167 L 74 223 Z" fill="#646524" fill-opacity="0.501961" />
<path d="M 237 152 L 228 138 L 255 152 Z" fill="#ffffff" fill-opacity="0.501961" />
<path d="M 283 52 L 303 37 L 324 37 Z" fill="#edffe6" fill-opacity="0.501961" />
<path d="M 151 199 L 183 210 L 170 200 Z" fill="#ffffff" fill-opacity="0.501961" />
<path d="M 103 92 L 88 78 L 81 89 Z" fill="#091500" fill-opacity="0.501961" />
<path d="M 432 221 L 417 196 L 451 214 Z" fill="#d99d46" fill-opacity="0.501961" />
<path d="M 284 12 L 299 18 L 303 5 Z" fill="#6da610" fill-opacity="0.501961" />
<path d="M 85 254 L 226 276 L 242 326 Z" fill="#ffffff" fill-opacity="0.501961" />
<path d="M 22 220 L 25 197 L 84 185 Z" fill="#6fa423" fill-opacity="0.501961" />
<path d="M 115 221 L 135 233 L 133 196 Z" fill="#163f14" fill-opacity="0.501961" />
<path d="M 428 240 L 402 229 L 433 230 Z" fill="#2e4d03" fill-opacity="0.501961" />
<path d="M 209 108 L 207 131 L 235 104 Z" fill="#c6e59c" fill-opacity="0.501961" />
<path d="M 105 57 L 123 56 L 119 45 Z" fill="#002100" fill-opacity="0.501961" />
<path d="M 313 51 L 325 57 L 299 60 Z" fill="#fafff7" fill-opacity="0.501961" />
<path d="M 19 209 L -7 216 L 12 204 Z" fill="#125c00" fill-opacity="0.501961" />
<path d="M 263 260 L 263 244 L 267 253 Z" fill="#ffffff" fill-opacity="0.501961" />
<path d="M 137 54 L 155 62 L 156 105 Z" fill="#27501e" fill-opacity="0.501961" />
<path d="M 333 66 L 334 35 L 301 82 Z" fill="#53561a" fill-opacity="0.501961" />
<path d="M 150 158 L 149 141 L 131 150 Z" fill="#fc1718" fill-opacity="0.501961" />
<path d="M 97 207 L 106 209 L 96 191 Z" fill="#fffffe" fill-opacity="0.501961" />
<path d="M 140 199 L 160 223 L 141 176 Z" fill="#285d00" fill-opacity="0.501961" />
<path d="M 198 55 L 180 60 L 187 62 Z" fill="#ffffff" fill-opacity="0.501961" />
<path d="M 43 115 L 67 96 L 69 114 Z" fill="#19320c" fill-opacity="0.501961" />
<path d="M 458 192 L 488 141 L 476 194 Z" fill="#ffffff" fill-opacity="0.501961" />
<path d="M 320 353 L 255 332 L 249 353 Z" fill="#7f6629" fill-opacity="0.501961" />
<path d="M 347 357 L 341 372 L 331 353 Z" fill="#af0500" fill-opacity="0.501961" />
<path d="M 329 100 L 343 111 L 336 96 Z" fill="#ffffff" fill-opacity="0.501961" />
<path d="M 422 363 L 345 381 L 347 354 Z" fill="#ffffff" fill-opacity="0.501961" />
<path d="M -5 127 L -5 99 L 25 117 Z" fill="#ffffff" fill-opacity="0.501961" />
<path d="M 72 166 L 79 157 L 55 133 Z" fill="#104913" fill-opacity="0.501961" />
<path d="M 435 170 L 415 158 L 419 177 Z" fill="#f71b2d" fill-opacity="0.501961" />
<path d="M 266 224 L 271 197 L 257 226 Z" fill="#ffffff" fill-opacity="0.501961" />
<path d="M 295 171 L 282 159 L 277 164 Z" fill="#ffffff" fill-opacity="0.501961" />
<path d="M 265 310 L 268 263 L 217 269 Z" fill="#5d4835" fill-opacity="0.501961" />
<path d="M 252 242 L 239 198 L 275 245 Z" fill="#473c20" fill-opacity="0.501961" />
<path d="M 462 67 L 446 78 L 460 81 Z" fill="#314d00" fill-opacity="0.501961" />
<path d="M 301 -15 L 387 6 L 328 35 Z" fill="#ffffff" fill-opacity="0.501961" />
<path d="M 325 184 L 315 196 L 340 201 Z" fill="#103a00" fill-opacity="0.501961" />
<path d="M 327 220 L 325 207 L 317 222 Z" fill="#f7ffff" fill-opacity="0.501961" />
<path d="M 162 165 L 193 195 L 268 194 Z" fill="#435b1f" fill-opacity="0.501961" />
<path d="M 169 144 L 215 149 L 192 140 Z" fill="#d6e2bb" fill-opacity="0.501961" />
<path d="M 241 200 L 235 186 L 214 209 Z" fill="#ff474b" fill-opacity="0.501961" />
<path d="M 261 153 L 278 135 L 243 66 Z" fill="#356320" fill-opacity="0.501961" />
<path d="M 274 27 L 299 46 L 299 23 Z" fill="#27442b" fill-opacity="0.501961" />
<path d="M 258 209 L 255 190 L 250 208 Z" fill="#ffffff" fill-opacity="0.501961" />
<path d="M 19 97 L 24 83 L -16 95 Z" fill="#ffffff" fill-opacity="0.501961" />
<path d="M 415 174 L 427 185 L 437 184 Z" fill="#ffffff" fill-opacity="0.501961" />
<path d="M 386 54 L 361 31 L 365 58 Z" fill="#7a9f50" fill-opacity="0.501961" />
<path d="M 235 103 L 216 97 L 238 93 Z" fill="#002500" fill-opacity="0.501961" />
<path d="M 310 156 L 298 137 L 263 160 Z" fill="#2f5719" fill-opacity="0.501961" />
<path d="M 250 70 L 256 89 L 258 45 Z" fill="#d4e7d0" fill-opacity="0.501961" />
<path d="M 194 207 L 183 191 L 219 211 Z" fill="#ffffff" fill-opacity="0.501961" />
<path d="M 369 46 L 384 36 L 374 53 Z" fill="#ffffff" fill-opacity="0.501961" />
<path d="M 157 381 L -16 304 L 105 237 Z" fill="#ffffff" fill-opacity="0.501961" />
<path d="M 214 56 L 170 69 L 271 77 Z" fill="#3e6926" fill-opacity="0.501961" />
<path d="M 313 68 L 318 11 L 300 27 Z" fill="#99c566" fill-opacity="0.501961" />
<path d="M 70 138 L 86 130 L 84 152 Z" fill="#ff222e" fill-opacity="0.501961" />
<path d="M 334 245 L 307 226 L 310 244 Z" fill="#ab2900" fill-opacity="0.501961" />
<path d="M 176 5 L 166 15 L 188 15 Z" fill="#6ca510" fill-opacity="0.501961" />
<path d="M 109 45 L 96 43 L 104 34 Z" fill="#1c3e00" fill-opacity="0.501961" />
<path d="M 189 252 L 197 257 L 195 233 Z" fill="#ffffff" fill-opacity="0.501961" />
<path d="M 261 7 L 268 15 L 268 2 Z" fill="#246a00" fill-opacity="0.501961" />
<path d="M 43 101 L 25 96 L 34 78 Z" fill="#649c13" fill-opacity="0.501961" />
<path d="M 336 -15 L 259 25 L 295 -16 Z" fill="#ffffff" fill-opacity="0.501961" />
<path d="M 305 16 L 309 28 L 283 16 Z" fill="#ffffff" fill-opacity="0.501961" />
<path d="M 461 214 L 470 213 L 458 201 Z" fill="#1b5f00" fill-opacity="0.501961" />
<path d="M 217 45 L 231 62 L 260 51 Z" fill="#284d2e" fill-opacity="0.501961" />
<path d="M 113 180 L 114 196 L 109 197 Z" fill="#ffffff" fill-opacity="0.501961" />
<path d="M 95 92 L 109 88 L 99 74 Z" fill="#ff1220" fill-opacity="0.501961" />
<path d="M 82 196 L 102 181 L 86 176 Z" fill="#ff5c4a" fill-opacity="0.501961" />
<path d="M 215 53 L 228 54 L 213 62 Z" fill="#ffffff" fill-opacity="0.501961" />
<path d="M 137 53 L 144 35 L 124 42 Z" fill="#2e5909" fill-opacity="0.501961" />
<path d="M -16 201 L -16 336 L 39 240 Z" fill="#ffffff" fill-opacity="0.501961" />
<path d="M 357 48 L 333 62 L 372 16 Z" fill="#ffffff" fill-opacity="0.501961" />
<path d="M 258 25 L 282 42 L 258 38 Z" fill="#ffffff" fill-opacity="0.501961" />
<path d="M 371 160 L 348 151 L 366 142 Z" fill="#fd2c23" fill-opacity="0.501961" />
<path d="M 57 139 L 47 114 L 25 114 Z" fill="#194a19" fill-opacity="0.501961" />
<path d="M 246 106 L 264 112 L 249 129 Z" fill="#c4eb77" fill-opacity="0.501961" />
<path d="M 100 246 L 87 216 L 106 211 Z" fill="#32571b" fill-opacity="0.501961" />
<path d="M 341 81 L 337 101 L 399 99 Z" fill="#376c35" fill-opacity="0.501961" />
<path d="M 267 192 L 294 203 L 280 210 Z" fill="#ffffff" fill-opacity="0.501961" />
<path d="M 314 149 L 304 146 L 324 141 Z" fill="#ffffff" fill-opacity="0.501961" />
<path d="M 398 90 L 397 98 L 368 90 Z" fill="#dbf4f6" fill-opacity="0.501961" />
<path d="M 254 236 L 245 244 L 232 229 Z" fill="#ef1216" fill-opacity="0.501961" />
<path d="M 243 172 L 255 168 L 246 180 Z" fill="#ffffff" fill-opacity="0.501961" />
<path d="M 237 -16 L 230 45 L 247 6 Z" fill="#ffffff" fill-opacity="0.501961" />
<path d="M 314 179 L 279 169 L 261 199 Z" fill="#1a4f1d" fill-opacity="0.501961" />
<path d="M 266 91 L 282 80 L 270 77 Z" fill="#e8e8ee" fill-opacity="0.501961" />
<path d="M 238 216 L 242 224 L 247 214 Z" fill="#ffffff" fill-opacity="0.501961" />
<path d="M 353 224 L 357 239 L 324 230 Z" fill="#233e04" fill-opacity="0.501961" />
<path d="M 390 145 L 381 170 L 398 152 Z" fill="#001900" fill-opacity="0.501961" />
<path d="M 123 43 L 99 54 L 93 45 Z" fill="#ffffff" fill-opacity="0.501961" />
<path d="M 214 261 L 204 241 L 221 246 Z" fill="#ff3d2f" fill-opacity="0.501961" />
<path d="M 261 200 L 291 253 L 302 225 Z" fill="#547338" fill-opacity="0.501961" />
<path d="M 270 269 L 384 350 L 266 318 Z" fill="#ffffff" fill-opacity="0.501961" />
<path d="M 154 240 L 162 246 L 151 223 Z" fill="#feffff" fill-opacity="0.501961" />
<path d="M 90 246 L 98 196 L 74 249 Z" fill="#8abd4f" fill-opacity="0.501961" />
<path d="M 123 51 L 157 53 L 125 64 Z" fill="#ffffff" fill-opacity="0.501961" />
<path d="M 142 135 L 146 109 L 161 120 Z" fill="#254605" fill-opacity="0.501961" />
<path d="M 232 46 L 249 48 L 236 33 Z" fill="#ff1138" fill-opacity="0.501961" />
<path d="M 70 108 L 81 95 L 104 91 Z" fill="#ffffff" fill-opacity="0.501961" />
<path d="M 189 125 L 190 108 L 201 121 Z" fill="#f4d6fb" fill-opacity="0.501961" />
<path d="M 93 168 L 102 127 L 113 187 Z" fill="#30611c" fill-opacity="0.501961" />
<path d="M 327 30 L 316 39 L 313 27 Z" fill="#1b3f07" fill-opacity="0.501961" />
<path d="M 263 288 L 224 218 L 247 319 Z" fill="#614836" fill-opacity="0.501961" />
<path d="M 432 205 L 424 182 L 406 172 Z" fill="#133d13" fill-opacity="0.501961" />
<path d="M 49 207 L 1 234 L 57 226 Z" fill="#ffffff" fill-opacity="0.501961" />
<path d="M 274 341 L 241 269 L 241 343 Z" fill="#67473a" fill-opacity="0.501961" />
<path d="M 113 110 L 58 72 L 76 98 Z" fill="#ffffff" fill-opacity="0.501961" />
<path d="M 137 253 L 144 219 L 157 224 Z" fill="#33682b" fill-opacity="0.501961" />
<path d="M 425 224 L 488 286 L 477 212 Z" fill="#ffffff" fill-opacity="0.501961" />
<path d="M 189 339 L 160 253 L 90 333 Z" fill="#ffffff" fill-opacity="0.501961" />
<path d="M 155 139 L 95 116 L 62 132 Z" fill="#699838" fill-opacity="0.501961" />
<path d="M 87 185 L 55 217 L 49 192 Z" fill="#6f9837" fill-opacity="0.501961" />
<path d="M 428 122 L 421 115 L 427 134 Z" fill="#ffffff" fill-opacity="0.501961" />
<path d="M 399 91 L 411 87 L 393 77 Z" fill="#ffffff" fill-opacity="0.501961" />
<path d="M 166 263 L 160 252 L 175 254 Z" fill="#f9080e" fill-opacity="0.501961" />
<path d="M 169 141 L 209 78 L 160 104 Z" fill="#54782b" fill-opacity="0.501961" />
</g>
</svg>
