<svg xmlns="http://www.w3.org/2000/svg" width="400" height="449"><style>.a{fill-opacity:0.5;}.b{fill-opacity:0.5;fill:#ff3f3d;}.c{fill-opacity:0.5;fill:#fff;}.d{fill-opacity:0.5;fill:#ff3d3b;}.e{fill-opacity:0.5;fill:#ffc2cc;}.f{fill-opacity:0.5;fill:#ff3f3c;}.g{fill-opacity:0.5;fill:#ff3b39;}.h{fill-opacity:0.5;fill:#ffaab2;}</style><rect width="400" height="449" fill="#703637"/><path d="M323.3 282.1C289.3 352.3 201.5 428.2 127.1 451.8 52.8 475.3 20.1 437.6 54.2 367.4 88.2 297.3 176.1 221.3 250.4 197.7 324.7 174.2 357.4 212 323.3 282.1" style="fill-opacity:0.5;fill:#fccbd5"/><path d="M415 462L415 274 76 461Z" class="a"/><path d="M78.5-7.5C121.8 35.9 121.8 106.1 78.5 149.5 35.1 192.8-35.1 192.8-78.5 149.5 -121.8 106.1-121.8 35.9-78.5-7.5 -35.1-50.8 35.1-50.8 78.5-7.5" class="a"/><path d="M319.9 28.4C370.7 56.9 370.7 103.1 319.9 131.6 269.2 160.1 186.8 160.1 136.1 131.6 85.3 103.1 85.3 56.9 136.1 28.4 186.8-0.1 269.2-0.1 319.9 28.4" style="fill-opacity:0.5;fill:#ff332e"/><path d="M424.3 410.9C383.1 520.5 336.7 515.4 320.7 399.3 304.7 283.3 325.1 100.3 366.3-9.4 407.5-119.1 453.9-113.9 469.9 2.2 485.9 118.2 465.5 301.2 424.3 410.9" class="a"/><path d="M2.3 198C14.8 152.8 41 150.6 60.7 193.2 80.5 235.8 86.4 306.9 73.9 352.2 61.4 397.4 35.2 399.6 15.5 357 -4.3 314.4-10.2 243.2 2.3 198" class="a"/><path d="M151.4 89.6C168.2 119.6 168.2 168.4 151.4 198.4 134.6 228.5 107.4 228.5 90.6 198.4 73.8 168.4 73.8 119.6 90.6 89.6 107.4 59.5 134.6 59.5 151.4 89.6" style="fill-opacity:0.5;fill:#ff6461"/><path d="M129.9 362.4C123 343 130.9 337.2 147.5 349.4 164.1 361.6 183.1 387.2 190 406.6 196.9 425.9 189.1 431.8 172.5 419.6 155.9 407.4 136.8 381.8 129.9 362.4" class="a"/><path d="M218.4 402.1C200.5 405.6 195 396.7 206.1 382.2 217.1 367.7 240.6 353.1 258.5 349.6 276.4 346 281.9 354.9 270.9 369.4 259.8 383.9 236.3 398.5 218.4 402.1" style="fill-opacity:0.5;fill:#fff1fd"/><path d="M195.3 214.2C180.7 200.1 184.4 183 203.5 176 222.6 169.1 249.9 175 264.5 189.2 279 203.3 275.3 220.4 256.2 227.4 237.1 234.3 209.9 228.4 195.3 214.2" style="fill-opacity:0.5;fill:#ffe5ef"/><path d="M113.6-60.1C151.5-26.9 151.5 26.9 113.6 60.1 75.7 93.3 14.3 93.3-23.6 60.1 -61.5 26.9-61.5-26.9-23.6-60.1 14.3-93.3 75.7-93.3 113.6-60.1" class="a"/><path d="M194.2 251.3L213.5 256.2 316.2 236.9 168.1 219.1Z" class="a"/><path d="M241-6L407-16 408 67Z" class="a"/><path d="M299.3 149.5C270.4 133.2 244.6 93.2 241.6 60.2 238.7 27.1 259.7 13.6 288.6 29.9 317.5 46.1 343.3 86.1 346.3 119.1 349.2 152.2 328.2 165.7 299.3 149.5" style="fill-opacity:0.5;fill:#ff403e"/><path d="M178.9 124.8L331 171.3 323.1 197.2 171 150.7Z" style="fill-opacity:0.5;fill:#000202"/><path d="M158.9 151.8C180.4 156.9 180.4 165.1 158.9 170.2 137.4 175.3 102.6 175.3 81.1 170.2 59.6 165.1 59.6 156.9 81.1 151.8 102.6 146.7 137.4 146.7 158.9 151.8" style="fill-opacity:0.5;fill:#a0ffff"/><path d="M122.4 312.3C112 282.6 126 270.6 153.7 285.5 181.4 300.5 212.2 336.6 222.6 366.3 233 396 219 408 191.3 393 163.6 378.1 132.8 342 122.4 312.3" style="fill-opacity:0.5;fill:#ffc7d2"/><path d="M92.9 375.3C116.7 372.6 130.5 389.1 123.7 412.1 116.9 435.1 92 455.8 68.2 458.5 44.4 461.1 30.6 444.7 37.4 421.7 44.2 398.7 69.1 377.9 92.9 375.3" style="fill-opacity:0.5;fill:#ffc5d0"/><path d="M97.8 287.5C102.1 301.6 102.1 324.4 97.8 338.5 93.5 352.5 86.5 352.5 82.2 338.5 77.9 324.4 77.9 301.6 82.2 287.5 86.5 273.5 93.5 273.5 97.8 287.5" style="fill-opacity:0.5;fill:#ffeaf7"/><path d="M64.5 106.5C74.5 162.3 65.9 250.5 45.3 303.3 24.7 356.2-0.1 353.8-10.1 297.9 -20.1 242.1-11.5 153.9 9.1 101.1 29.7 48.2 54.5 50.6 64.5 106.5" class="a"/><path d="M101 239.3C87.6 251.1 71.3 247.3 64.5 230.8 57.7 214.3 63.1 191.4 76.4 179.5 89.8 167.7 106.1 171.5 112.9 188 119.7 204.6 114.4 227.5 101 239.3" style="fill-opacity:0.5;fill:#ff2c28"/><path d="M307.2 289.6C296.5 276 284.8 251.2 281.1 234.3 277.5 217.3 283.2 214.6 293.9 228.3 304.6 241.9 316.3 266.6 320 283.5 323.6 300.5 317.9 303.2 307.2 289.6" style="fill-opacity:0.5;fill:#000201"/><path d="M249.7 23.3C272.8 46.3 272.8 83.7 249.7 106.7 226.7 129.8 189.3 129.8 166.3 106.7 143.2 83.7 143.2 46.3 166.3 23.3 189.3 0.2 226.7 0.2 249.7 23.3" class="b"/><path d="M324.4 374.6C341.2 391.4 341.2 418.6 324.4 435.4 307.6 452.2 280.4 452.2 263.6 435.4 246.8 418.6 246.8 391.4 263.6 374.6 280.4 357.8 307.6 357.8 324.4 374.6" class="a"/><path d="M311.1-7.1C467-3.2 467 3.2 311.1 7.1 155.3 11-97.3 11-253.1 7.1 -409 3.2-409-3.2-253.1-7.1 -97.3-11 155.3-11 311.1-7.1" class="a"/><path d="M164 209L196 272 136 302Z" style="fill-opacity:0.5;fill:#ffd2dd"/><path d="M337.3 217.7C346.2 226.7 346.2 241.3 337.3 250.3 328.3 259.2 313.7 259.2 304.7 250.3 295.8 241.3 295.8 226.7 304.7 217.7 313.7 208.8 328.3 208.8 337.3 217.7" style="fill-opacity:0.5;fill:#dfb3ba"/><path d="M187.3 393L119.9 330.5 155.5 407 393.4 464Z" class="a"/><path d="M360.1 60.4C370.2 73.7 382.7 97.4 388 113.2 393.4 129 389.6 131 379.6 117.7 369.5 104.3 357 80.7 351.7 64.9 346.3 49 350.1 47 360.1 60.4" style="fill-opacity:0.5;fill:#ff4b47"/><path d="M59.1 329.4C73.9 332.7 75.8 342.4 63.4 351.1 51.1 359.8 29.1 364.2 14.3 360.9 -0.4 357.6-2.3 347.9 10 339.2 22.4 330.5 44.4 326.1 59.1 329.4" style="fill-opacity:0.5;fill:#e4362c"/><path d="M418.9 240.6C440.4 289.4 440.4 368.6 418.9 417.4 397.4 466.2 362.6 466.2 341.1 417.4 319.6 368.6 319.6 289.4 341.1 240.6 362.6 191.8 397.4 191.8 418.9 240.6" class="a"/><path d="M357 116.9L310.1 38.9 323 31.1 369.9 109.1Z" class="a"/><path d="M255 348L192 319 219 346Z" class="a"/><path d="M125.2 348.8C136.9 360.5 136.9 379.5 125.2 391.2 113.5 402.9 94.5 402.9 82.8 391.2 71.1 379.5 71.1 360.5 82.8 348.8 94.5 337.1 113.5 337.1 125.2 348.8" style="fill-opacity:0.5;fill:#ffbec8"/><path d="M-17.2 65.3L279.5-92.4 299.2-55.3 2.5 102.4Z" class="a"/><path d="M267.9 259.9C282.7 270.5 282.7 287.5 267.9 298.1 253 308.6 229 308.6 214.1 298.1 199.3 287.5 199.3 270.5 214.1 259.9 229 249.4 253 249.4 267.9 259.9" style="fill-opacity:0.5;fill:#ffbbc4"/><path d="M195 161L225 160 191 184Z" class="c"/><path d="M73.1 328.5C77 342.6 77 365.4 73.1 379.5 69.2 393.5 62.8 393.5 58.9 379.5 55 365.4 55 342.6 58.9 328.5 62.8 314.5 69.2 314.5 73.1 328.5" style="fill-opacity:0.5;fill:#150101"/><path d="M367.6 188C391 201.8 389.4 204.9 364.1 195.1 338.8 185.2 299.3 166.1 275.9 152.3 252.5 138.6 254.1 135.4 279.4 145.3 304.7 155.1 344.1 174.3 367.6 188" style="fill-opacity:0.5;fill:#ff3531"/><path d="M388.2 172.5L391.3 116.7 382.5 106.1 372 212.9Z" style="fill-opacity:0.5;fill:#ff3935"/><path d="M166.8 69.2C184.4 86.8 184.4 115.2 166.8 132.8 149.2 150.4 120.8 150.4 103.2 132.8 85.6 115.2 85.6 86.8 103.2 69.2 120.8 51.6 149.2 51.6 166.8 69.2" style="fill-opacity:0.5;fill:#ff2f2e"/><path d="M16.4 462.3L-23.5 459.5 -16.4 357.7 23.5 360.5Z" style="fill-opacity:0.5;fill:#070000"/><path d="M127 239L62 278 147 190Z" class="a"/><path d="M317 251L334 251 334 264 317 264Z" style="fill-opacity:0.5;fill:#fff3ff"/><path d="M48.3 246.5C69.9 244.1 86.1 259.8 84.5 281.4 82.8 303.1 64 322.6 42.4 325 20.8 327.4 4.6 311.8 6.3 290.1 7.9 268.4 26.7 248.9 48.3 246.5" class="a"/><path d="M253.7 325.1C235.5 328 232.8 321.4 247.6 310.4 262.4 299.5 289.2 288.4 307.4 285.5 325.6 282.7 328.4 289.3 313.6 300.3 298.7 311.2 271.9 322.3 253.7 325.1" style="fill-opacity:0.5;fill:#ecb4bc"/><path d="M199.7 290.2C217.6 297.3 245.4 311.3 261.9 321.3 278.3 331.3 277.1 333.7 259.3 326.5 241.4 319.4 213.6 305.4 197.1 295.4 180.7 285.4 181.8 283.1 199.7 290.2" style="fill-opacity:0.5;fill:#000200"/><path d="M11.9 271.3C-24.2 333.2-39.4 327.1-21.9 257.6 -4.5 188 39 81.5 75.1 19.6 111.2-42.3 126.4-36.1 108.9 33.4 91.5 102.9 48 209.4 11.9 271.3" class="a"/><path d="M255.6 246.5C217.1 260.1 215.2 255.8 251.4 236.9 287.7 218 348.2 191.7 386.8 178 425.3 164.4 427.1 168.7 390.9 187.6 354.7 206.5 294.1 232.8 255.6 246.5" style="fill-opacity:0.5;fill:#160f0e"/><path d="M302-57.9C339.6-28.2 390.3 29.1 415 70.1 439.8 111.2 429.3 120.4 391.6 90.8 354 61.1 303.3 3.8 278.6-37.2 253.8-78.3 264.3-87.5 302-57.9" class="a"/><path d="M192.7 405.9L222.3 442.4 215.3 448.1 185.7 411.6Z" style="fill-opacity:0.5;fill:#ff4137"/><path d="M71.4 242.1C64.2 228.6 63.5 206.3 69.8 192.4 76.2 178.4 87.2 178.1 94.5 191.6 101.7 205.1 102.4 227.4 96 241.3 89.7 255.3 78.6 255.6 71.4 242.1" class="d"/><path d="M373.7 116.4C380.8 131.7 380.8 156.3 373.7 171.6 366.7 186.8 355.3 186.8 348.3 171.6 341.2 156.3 341.2 131.7 348.3 116.4 355.3 101.2 366.7 101.2 373.7 116.4" class="a"/><path d="M316.2 421.8C293.3 443.9 273.4 436 271.7 404.2 270.1 372.4 287.3 328.7 310.3 306.6 333.2 284.6 353.1 292.4 354.8 324.2 356.4 356 339.1 399.7 316.2 421.8" class="a"/><path d="M125.2 345.7L86.1 266.2 206.5 453 146.7 394.9Z" class="a"/><path d="M301.6 213C293.5 222.3 277.7 226 266.2 221.5 254.8 216.9 252.1 205.7 260.3 196.5 268.4 187.2 284.2 183.4 295.6 188 307 192.6 309.7 203.8 301.6 213" style="fill-opacity:0.5;fill:#ffb5bf"/><path d="M323.7 223.3L339.4 230.7 323.3 241.7 317.4 237.8Z" class="a"/><path d="M0 173L155 173 155 177 0 177Z" class="a"/><path d="M219 185.7L253 194.9 235.5 209.7 237.8 189.4Z" class="a"/><path d="M245.3 390.5C234.9 400 217.9 400.2 207.3 390.9 196.8 381.6 196.6 366.3 207 356.8 217.3 347.3 234.3 347.1 244.9 356.4 255.5 365.7 255.6 380.9 245.3 390.5" style="fill-opacity:0.5;fill:#ffa9b1"/><path d="M347.5 272.5C356.7 261.5 358.2 262.5 350.8 274.9 343.4 287.2 330 306.1 320.8 317.1 311.6 328.2 310.1 327.1 317.5 314.8 324.9 302.5 338.3 283.6 347.5 272.5" style="fill-opacity:0.5;fill:#ff4541"/><path d="M69 359L41 464 38 403Z" style="fill-opacity:0.5;fill:#ffbdc7"/><path d="M116.9 438.1L104 416.6 145.1 391.9 158 413.4Z" style="fill-opacity:0.5;fill:#ffc1cb"/><path d="M160 138.5L180.5 124 175.9 134.3 137.1 171.8Z" style="fill-opacity:0.5;fill:#0b0404"/><path d="M212.9 126.8L214.3 122 295.1 145.2 293.7 150Z" class="a"/><path d="M340.4 108.6C350.5 118.8 350.5 135.2 340.4 145.4 330.2 155.5 313.8 155.5 303.6 145.4 293.5 135.2 293.5 118.8 303.6 108.6 313.8 98.5 330.2 98.5 340.4 108.6" style="fill-opacity:0.5;fill:#ff3c39"/><path d="M251.2 165L287.4 176.7 282.8 191 246.6 179.3Z" class="a"/><path d="M293.8 254.4L281.6 243 172.9 264.9 233.8 311.3Z" style="fill-opacity:0.5;fill:#efa9b1"/><path d="M124.8 282.1L145.9 261.9 181 163.3 109.9 280.6Z" style="fill-opacity:0.5;fill:#280000"/><path d="M157.4 420.4L186 408.4 180.3 420.4 166.2 464Z" style="fill-opacity:0.5;fill:#e72b21"/><path d="M271 282L288 282 288 288 271 288Z" class="a"/><path d="M406.8-113.1C411.1 42.7 411.1 295.3 406.8 451.1 402.5 607 395.5 607 391.2 451.1 386.9 295.3 386.9 42.7 391.2-113.1 395.5-269 402.5-269 406.8-113.1" class="a"/><path d="M277.9 336.1C283.4 341.6 283.4 350.4 277.9 355.9 272.4 361.4 263.6 361.4 258.1 355.9 252.6 350.4 252.6 341.6 258.1 336.1 263.6 330.6 272.4 330.6 277.9 336.1" class="e"/><path d="M348.2 93.5L72.4 147.4 96.1 78.6 132.6 31.6Z" style="fill-opacity:0.5;fill:#ff3a38"/><path d="M242.1 142.2C259.3 146.5 259.3 153.5 242.1 157.8 224.9 162.1 197.1 162.1 179.9 157.8 162.7 153.5 162.7 146.5 179.9 142.2 197.1 137.9 224.9 137.9 242.1 142.2" style="fill-opacity:0.5;fill:#000d0e"/><path d="M148 216L89 270 128 252Z" style="fill-opacity:0.5;fill:#ff322e"/><path d="M349.4 183.8C344.6 176.8 346.6 174.6 353.9 179 361.1 183.4 370.9 192.7 375.6 199.7 380.4 206.7 378.4 208.8 371.1 204.4 363.9 200 354.1 190.8 349.4 183.8" style="fill-opacity:0.5;fill:#ff4946"/><path d="M78 316L112 316 112 442 78 442Z" style="fill-opacity:0.5;fill:#f9a6ae"/><path d="M382.4 96.1C388 109.2 384.4 111.6 374.3 101.6 364.2 91.6 351.4 72.9 345.8 59.8 340.2 46.7 343.8 44.3 353.9 54.3 364 64.3 376.8 83 382.4 96.1" class="f"/><path d="M81 303L-16 347 47 121Z" class="a"/><path d="M310 28L378 164 362 85Z" class="a"/><path d="M2 374L41 387 33 464Z" style="fill-opacity:0.5;fill:#700e07"/><path d="M203.3 228.6C222.3 227.2 252.8 230 271.3 234.8 289.8 239.6 289.4 244.6 270.3 246 251.2 247.4 220.8 244.7 202.2 239.9 183.7 235.1 184.2 230 203.3 228.6" style="fill-opacity:0.5;fill:#000e0d"/><path d="M74.7 25.3C100.4 51.1 100.4 92.9 74.7 118.7 48.9 144.4 7.1 144.4-18.7 118.7 -44.4 92.9-44.4 51.1-18.7 25.3 7.1-0.4 48.9-0.4 74.7 25.3" class="a"/><path d="M252.7 219.1C262.4 221.8 262.4 226.2 252.7 229 242.9 231.7 227.1 231.7 217.3 229 207.6 226.2 207.6 221.8 217.3 219.1 227.1 216.3 242.9 216.3 252.7 219.1" style="fill-opacity:0.5;fill:#ffafb8"/><path d="M185.7 138.7L202.5 145.2 176.3 213.3 159.5 206.9Z" style="fill-opacity:0.5;fill:#002626"/><path d="M68.7 340.7L77.4 347.4 41.3 395.3 32.6 388.6Z" class="a"/><path d="M119 210.8C113.2 204.4 111.5 192.8 115.2 184.9 118.9 177.1 126.6 175.9 132.4 182.4 138.3 188.8 140 200.4 136.3 208.2 132.6 216.1 124.9 217.2 119 210.8" style="fill-opacity:0.5;fill:#ff2623"/><path d="M330.2 263.8L348.9 229 335.3 218 327.6 266Z" style="fill-opacity:0.5;fill:#ffb1bb"/><path d="M275.7 14.5C305.4 25.8 305.4 44.2 275.7 55.5 246.1 66.8 197.9 66.8 168.3 55.5 138.6 44.2 138.6 25.8 168.3 14.5 197.9 3.2 246.1 3.2 275.7 14.5" class="g"/><path d="M251.9 348.2L249 354.6 200.1 331.8 203 325.4Z" class="a"/><path d="M165.6 149.1L220.1 127.2 186.1 131.2 160.8 144.8Z" style="fill-opacity:0.5;fill:#ff3d3a"/><path d="M227 179.7C236.3 188.7 236.3 203.3 227 212.3 217.6 221.2 202.4 221.2 193 212.3 183.7 203.3 183.7 188.7 193 179.7 202.4 170.8 217.6 170.8 227 179.7" style="fill-opacity:0.5;fill:#fdb8bf"/><path d="M214.6 123.9C223.1 125.1 223.1 127 214.6 128.1 206 129.3 192 129.3 183.4 128.1 174.9 127 174.9 125.1 183.4 123.9 192 122.7 206 122.7 214.6 123.9" class="a"/><path d="M133.8 149.7C116.4 150 88.3 148.9 71 147.3 53.7 145.7 53.8 144.1 71.1 143.9 88.5 143.6 116.6 144.7 133.9 146.3 151.2 147.9 151.1 149.4 133.8 149.7" class="a"/><path d="M301.7 224.9L316.5 222.6 322.3 259.1 307.5 261.4Z" style="fill-opacity:0.5;fill:#ffe0e5"/><path d="M53.9 345L28.1 369.7 8.1 390.3 25.9 408.8Z" style="fill-opacity:0.5;fill:#d93a32"/><path d="M379.5 353.5C406.8 380.8 406.8 425.2 379.5 452.5 352.2 479.8 307.8 479.8 280.5 452.5 253.2 425.2 253.2 380.8 280.5 353.5 307.8 326.2 352.2 326.2 379.5 353.5" class="a"/><path d="M289.2 338.5L255.1 385.6 109.9 288.1 237.7 351.7Z" class="h"/><path d="M291 231L300 231 300 272 291 272Z" class="a"/><path d="M203 187L235 187 235 190 203 190Z" class="a"/><path d="M322.3 265.2C328.6 269.5 328.6 276.5 322.3 280.8 316.1 285.1 305.9 285.1 299.7 280.8 293.4 276.5 293.4 269.5 299.7 265.2 305.9 260.9 316.1 260.9 322.3 265.2" style="fill-opacity:0.5;fill:#000100"/><path d="M213 296L213.4 295.1 251 316 250.6 316.9Z" class="c"/><path d="M272.3 323.2L248.7 308.4 290.9 325.9 281.4 341.9Z" style="fill-opacity:0.5;fill:#312a2c"/><path d="M198 276.9C194.2 284.5 186.9 296.2 181.7 303 176.4 309.8 175.3 309.1 179.1 301.4 182.9 293.8 190.3 282.1 195.5 275.3 200.7 268.5 201.9 269.2 198 276.9" style="fill-opacity:0.5;fill:#0a0607"/><path d="M196.7 440.6L197.9 449.5 155.3 455.4 154.1 446.5Z" style="fill-opacity:0.5;fill:#ff4d42"/><path d="M40.7 328.5L64.4 317.9 71.3 333.5 47.6 344.1Z" style="fill-opacity:0.5;fill:#d23b33"/><path d="M343.8 348.3C351.1 292.6 373.4 205 393.6 152.6 413.9 100.2 424.5 102.9 417.3 158.6 410 214.3 387.8 301.9 367.5 354.3 347.2 406.7 336.6 404 343.8 348.3" class="a"/><path d="M220.3 406.4L214.2 420.1 145.7 389.6 151.8 375.9Z" class="a"/><path d="M248.8 345.7L171.5 308 177.2 296.3 254.5 334Z" class="e"/><path d="M168 183.8L149 172.8 154 164.2 173 175.2Z" style="fill-opacity:0.5;fill:#b2e4e4"/><path d="M400.5 20.5L400.5-16 280.6 1.5 411.5 92.6Z" class="a"/><path d="M77 269L118 265 110 287Z" class="a"/><path d="M161.8-38.5C196.2-60 204.9-50.7 181.3-17.7 157.7 15.3 110.7 59.4 76.3 80.9 41.9 102.4 33.2 93.1 56.8 60.1 80.4 27.1 127.4-17 161.8-38.5" class="a"/><path d="M114 304.6C114.5 288.7 127.5 273.3 143.1 270.1 158.7 266.9 170.9 277.3 170.5 293.2 170 309.1 157 324.5 141.5 327.7 125.9 330.8 113.6 320.5 114 304.6" style="fill-opacity:0.5;fill:#fda9b1"/><path d="M306.1 151.5C321.9 157.8 321.3 159.5 304.9 155.1 288.5 150.8 262.5 142.1 246.7 135.8 231 129.5 231.5 127.9 247.9 132.2 264.3 136.6 290.4 145.2 306.1 151.5" class="a"/><path d="M326.5 125.8C354.4 133.4 353.6 139.3 324.7 139 295.7 138.8 249.7 132.4 221.8 124.8 193.9 117.2 194.7 111.3 223.6 111.6 252.5 111.8 298.6 118.2 326.5 125.8" class="g"/><path d="M117.6 417.3C98.8 406.8 80.9 381.2 77.5 360 74.2 338.9 86.6 330.2 105.3 340.6 124 351.1 141.9 376.7 145.3 397.9 148.7 419 136.3 427.7 117.6 417.3" style="fill-opacity:0.5;fill:#f3a8b0"/><path d="M161 152L75 149 65 176Z" style="fill-opacity:0.5;fill:#bdc6c6"/><path d="M216 190L234 190 234 197 216 197Z" class="c"/><path d="M290.4 398.6C307.2 406 307.2 418 290.4 425.4 273.6 432.9 246.4 432.9 229.6 425.4 212.8 418 212.8 406 229.6 398.6 246.4 391.1 273.6 391.1 290.4 398.6" class="a"/><path d="M379.5 127.5L367.5 90.1 384.7 98.4 386.9 176.8Z" class="f"/><path d="M140 464L73 464 161 414Z" style="fill-opacity:0.5;fill:#3e0000"/><path d="M-2 464L26 464 -16 411Z" style="fill-opacity:0.5;fill:#ff4e42"/><path d="M131.2 206.8L93.3 239.7 94.8 261.2 114.5 250.5Z" class="a"/><path d="M249.5 315.4L206.9 296.9 235.6 316.6 275.9 329.9Z" class="a"/><path d="M110.6 315.3C107.9 308.1 105.5 296.1 105.3 288.4 105.1 280.7 107.1 280.3 109.8 287.5 112.5 294.7 114.8 306.7 115 314.4 115.2 322.1 113.3 322.5 110.6 315.3" style="fill-opacity:0.5;fill:#140000"/><path d="M108.6 274.6L130.9 261.2 133.4 265.4 111.1 278.8Z" style="fill-opacity:0.5;fill:#ff4d48"/><path d="M106.7 193.1L106.3 202 85.3 200.9 85.7 192Z" style="fill-opacity:0.5;fill:#1e0303"/><path d="M331.6 216.9L280.5 221.9 320.3 224.2 317.1 203.6Z" style="fill-opacity:0.5;fill:#131112"/><path d="M183.1 10.5L359.2-7.6 -16 0.2 13.7 74.7Z" class="a"/><path d="M86 88L-16 98 53 229Z" class="a"/><path d="M299.1 333.5L297.5 331.1 324.5 314.2 286.3 353Z" style="fill-opacity:0.5;fill:#ff3c38"/><path d="M262.3 273.3L290.9 288.1 293.5 271.3 279.8 293.4Z" style="fill-opacity:0.5;fill:#0f090a"/><path d="M64.4 387.8L67.8 389.9 61.6 400.2 58.2 398.1Z" class="a"/><path d="M293.3 446.6L231.5 458.5 248.6 429 261.3 443.6Z" style="fill-opacity:0.5;fill:#d2332a"/><path d="M207.7 309.7L208.1 308.8 254.3 330.3 253.9 331.2Z" class="a"/><path d="M127 255L82 262 100 268Z" style="fill-opacity:0.5;fill:#ff3f3b"/><path d="M85.5 275.1L119.8 330.6 148.6 405.3 78.7 315Z" style="fill-opacity:0.5;fill:#feaeb6"/><path d="M372.2 151.3C375.8 161.1 370.7 171.4 360.7 174.5 350.8 177.6 339.9 172.2 336.4 162.5 332.8 152.7 337.9 142.3 347.8 139.3 357.7 136.2 368.6 141.6 372.2 151.3" class="a"/><path d="M137.8 261C131.7 273.4 130.8 273 135.7 260.1 140.7 247.2 149.6 226.6 155.6 214.2 161.7 201.7 162.6 202.1 157.6 215 152.7 228 143.8 248.5 137.8 261" style="fill-opacity:0.5;fill:#ff3d39"/><path d="M305 211L316 203 347 214Z" class="a"/><path d="M140.8 239.8L136.1 237.9 157.2 188.2 161.9 190.1Z" class="a"/><path d="M191 289L201 301 219 293Z" class="a"/><path d="M193.2 252.7L157.5 197.7 251.6 245.9 228.2 255.5Z" style="fill-opacity:0.5;fill:#182827"/><path d="M322.6 32.2C335.3 43 354.1 62.2 364.7 75.2 375.2 88.1 373.4 89.8 360.7 79.1 347.9 68.3 329.1 49.1 318.6 36.2 308.1 23.2 309.9 21.5 322.6 32.2" class="d"/><path d="M136.2 238.9C130 250.2 127.4 249.2 130.6 236.7 133.7 224.1 141.3 204.7 147.5 193.3 153.8 182 156.3 183 153.2 195.6 150.1 208.1 142.5 227.5 136.2 238.9" style="fill-opacity:0.5;fill:#ff2b28"/><path d="M303 215L329 215 329 218 303 218Z" style="fill-opacity:0.5;fill:#ffdfea"/><path d="M-1.6 354.1L-5.1 343.7 17.6 335.9 21.1 346.3Z" style="fill-opacity:0.5;fill:#ff4f45"/><path d="M184.4 415.8L221.6 449.3 213.6 458.2 176.4 424.7Z" class="a"/><path d="M64.2 209.3L64.8 178.3 83.8 178.7 83.2 209.7Z" class="b"/><path d="M272 189L225 171 278 214Z" style="fill-opacity:0.5;fill:#ffb0b9"/><path d="M179.3 385.3C163.1 375.7 144.1 353.8 136.7 336.5 129.4 319.2 136.5 313 152.7 322.6 168.8 332.3 187.9 354.1 195.2 371.4 202.5 388.7 195.4 394.9 179.3 385.3" class="h"/><path d="M218 264L159 229 140 277Z" style="fill-opacity:0.5;fill:#ffadb6"/><path d="M297.2 342.7L344.7 290.8 339.3 287.5 303.7 331.3Z" style="fill-opacity:0.5;fill:#fa3835"/><path d="M236 157.6L227.5 154.7 279.2 172.9 217.3 172.9Z" class="a"/><path d="M140.5 166.9L160.2 182.3 159.5 183.1 139.8 167.7Z" class="a"/><path d="M320 289L289 281 298 318Z" style="fill-opacity:0.5;fill:#ffbcc6"/><path d="M11 392L23 464 -3 413Z" class="a"/><path d="M-15.1 385.9L35.5 369 3.3 357.5 -16 357.1Z" class="a"/><path d="M302.1 249.3L299 224.5 313.9 222.7 317 247.5Z" style="fill-opacity:0.5;fill:#f6d6d8"/><path d="M263.9 219.1C276 221.8 276 226.2 263.9 229 251.8 231.7 232.2 231.7 220.1 229 208 226.2 208 221.8 220.1 219.1 232.2 216.3 251.8 216.3 263.9 219.1" style="fill-opacity:0.5;fill:#ffacb4"/><path d="M318.5 171.7C313.2 167.8 314.2 165.1 320.7 165.6 327.2 166.1 336.8 169.6 342.2 173.5 347.5 177.3 346.5 180 339.9 179.5 333.4 179 323.8 175.5 318.5 171.7" style="fill-opacity:0.5;fill:#ff4744"/><path d="M274 247L289 247 289 280 274 280Z" style="fill-opacity:0.5;fill:#ffbfc9"/><path d="M324.8 189.4C297.3 180.2 253.3 163.9 226.4 153 199.6 142.1 200.1 140.7 227.6 149.9 255.1 159 299.1 175.3 325.9 186.2 352.8 197.1 352.3 198.5 324.8 189.4" style="fill-opacity:0.5;fill:#516969"/><path d="M299 219L289 219 289 240 299 240Z" class="a"/><path d="M33 175L116.9 172 117 175 33.1 178Z" class="a"/><path d="M276.2 180.6L329.9 203 304.4 205.8 301.1 206.8Z" style="fill-opacity:0.5;fill:#f5aeb7"/><path d="M246.2 191.1C248.6 193.8 248.6 198.2 246.2 201 243.9 203.7 240.1 203.7 237.8 201 235.4 198.2 235.4 193.8 237.8 191.1 240.1 188.3 243.9 188.3 246.2 191.1" class="a"/><path d="M343.7 184.9C359.5 193.1 358.6 195.4 341.6 189.9 324.6 184.5 298 173.3 282.2 165.1 266.3 156.8 267.3 154.6 284.3 160 301.3 165.5 327.9 176.6 343.7 184.9" class="a"/><path d="M282.1 337.2L275.4 346.3 289.7 309.2 291.2 326.8Z" style="fill-opacity:0.5;fill:#211416"/><path d="M319 46L334 165 122 48Z" style="fill-opacity:0.5;fill:#f23a38"/><path d="M390.5 141.8L380.7 197.2 376.5 183.4 387 108.5Z" style="fill-opacity:0.5;fill:#ff403d"/><path d="M76 362L46 365 76 332Z" class="a"/><path d="M132 201L107 231 67 209Z" class="g"/><path d="M339 208.7L338.6 209.6 325 203.3 325.4 202.4Z" class="c"/><path d="M123.9 446L111 451.3 174.3 438.6 169.4 428.4Z" style="fill-opacity:0.5;fill:#ee3a30"/><path d="M33 405L36 405 36 446 33 446Z" class="a"/><path d="M317.7 240.5C312 239.4 303 236.6 297.7 234.1 292.4 231.7 292.7 230.6 298.4 231.7 304.2 232.8 313.2 235.7 318.5 238.1 323.8 240.6 323.4 241.6 317.7 240.5" style="fill-opacity:0.5;fill:#362224"/><path d="M167.1 421.2L176.3 440.7 191.6 437 161.3 413.9Z" class="a"/><path d="M217.1 343.9C232.6 348.5 243.2 365.1 240.8 381.1 238.3 397.1 223.8 406.3 208.3 401.8 192.8 397.3 182.2 380.6 184.6 364.7 187 348.7 201.6 339.4 217.1 343.9" style="fill-opacity:0.5;fill:#f3a5ad"/><path d="M286.8 328.8L269.9 278 249.6 308.6 243.8 301.4Z" style="fill-opacity:0.5;fill:#ffaeb7"/><path d="M282.1 343.2L204.5 304.9 256 327 250.1 336.5Z" style="fill-opacity:0.5;fill:#fdeaed"/><path d="M415 112L365 40 404 165Z" class="a"/><path d="M271 343.1L251.1 345.8 189.4 324.4 240.4 352.7Z" class="a"/><path d="M205.8 299.3L259.1 331.9 202 300.6 202.1 294.4Z" style="fill-opacity:0.5;fill:#e1ffff"/><path d="M143.1 244.6L172.1 160.4 174.9 161.4 145.9 245.6Z" style="fill-opacity:0.5;fill:#ff5b58"/><path d="M310.1 302.5L278.5 351.1 275.9 349.5 307.5 300.9Z" style="fill-opacity:0.5;fill:#ffbfc8"/><path d="M105 302L108 284 101 270Z" style="fill-opacity:0.5;fill:#ff2e2a"/><path d="M167.7 181L133.5 175.5 170.4 187.8 183.8 190.2Z" class="a"/><path d="M35 447L82 453 84 361Z" style="fill-opacity:0.5;fill:#faa9b1"/><path d="M210 203L282 203 282 225 210 225Z" style="fill-opacity:0.5;fill:#e3989f"/><path d="M352.5 219.5C350.9 219.8 349 219 348.3 217.6 347.5 216.2 348.2 214.7 349.7 214.4 351.3 214 353.1 214.8 353.9 216.2 354.7 217.6 354 219.1 352.5 219.5" style="fill-opacity:0.5;fill:#ffd1db"/><path d="M187.6 138.9C197.7 136.5 214.1 136.1 224.3 138 234.4 139.9 234.5 143.5 224.5 145.9 214.4 148.3 198 148.8 187.8 146.8 177.6 144.9 177.5 141.4 187.6 138.9" class="a"/><path d="M225 160.9C231.7 162.1 231.7 164 225 165.1 218.4 166.3 207.6 166.3 201 165.1 194.3 164 194.3 162.1 201 160.9 207.6 159.7 218.4 159.7 225 160.9" style="fill-opacity:0.5;fill:#ffc6d5"/><path d="M376 189L399 189 399 448 376 448Z" class="a"/><path d="M330.5 35L279.5 11 314.4 46.1 263.4 31.1Z" class="g"/><path d="M32.3 361.6L68.1 321.4 38 336 68.3 337.1Z" style="fill-opacity:0.5;fill:#36100f"/><path d="M70.8 360.1L43.6 396.8 51 421.2 68.2 373.4Z" style="fill-opacity:0.5;fill:#ffaeb6"/><path d="M197.4 225.2L174.9 194.8 203.2 222.3 237.7 237.3Z" class="a"/><path d="M205.7 289.2C236.7 302.7 258.2 313.3 270.3 321.2" style="fill:none;stroke-opacity:0.5;stroke:#051e1b"/><path d="M244 266L244 273 240 262Z" class="a"/><path d="M48.5 69.7C69.2 130.6 69.2 229.4 48.5 290.3 27.8 351.2-5.8 351.2-26.5 290.3 -47.2 229.4-47.2 130.6-26.5 69.7 -5.8 8.8 27.8 8.8 48.5 69.7" class="a"/><path d="M107 401L106 401 106 418 107 418Z" class="a"/><path d="M375.8 200.1C377.4 202.8 377.4 207.2 375.8 210 374.3 212.7 371.7 212.7 370.2 210 368.6 207.2 368.6 202.8 370.2 200.1 371.7 197.3 374.3 197.3 375.8 200.1" style="fill-opacity:0.5;fill:#ff4e4b"/><path d="M116.1 247.9L136.9 219.6 151.7 174.4 147.4 181.1Z" class="a"/><path d="M267 319.5C276.4 325.3 275.6 326.8 265.4 322.9 255.2 318.9 239.3 311 230 305.2 220.7 299.5 221.5 298 231.7 301.9 241.9 305.9 257.7 313.8 267 319.5" style="fill-opacity:0.5;fill:#d9fffd"/><path d="M281.3 324.5L275.5 329 225.6 336.6 277.5 352.9Z" style="fill-opacity:0.5;fill:#f4a3ac"/><path d="M38 396L15 377 38 410Z" class="a"/><path d="M213.6 197.9L212.3 196.8 249.7 209.9 221.8 203.1Z" style="fill-opacity:0.5;fill:#0b1110"/><path d="M292.1 342.3C297.9 334.6 308.4 322.9 315.5 316.2 322.5 309.6 323.5 310.5 317.7 318.2 311.9 326 301.4 337.7 294.3 344.4 287.3 351 286.3 350.1 292.1 342.3" style="fill-opacity:0.5;fill:#fb3937"/><path d="M360.7 213.4L359 217.1 259.3 170.6 261 166.9Z" class="a"/><path d="M190.1 397.5L192.1 401 95.9 456.5 93.9 453Z" class="a"/><path d="M239.1 134.1L238.8 139.1 178.9 135.9 179.2 130.9Z" style="fill-opacity:0.5;fill:#ff4341"/><path d="M-16 195L86 253 -10 294Z" class="a"/><path d="M43 374.8L30 342.8 20.8 348.9 39.1 373.5Z" style="fill-opacity:0.5;fill:#ff4c44"/><path d="M188.7 404.2L244.2 464 188.1 419 180.4 416.9Z" style="fill-opacity:0.5;fill:#d93b34"/><path d="M205 415.7L285.5 365.5 244.3 433.9 267.5 464Z" class="a"/><path d="M135.3 256.7L147.3 235.7 137 241.6 103.7 278.6Z" class="a"/><path d="M19 410L15 410 15 420 19 420Z" style="fill-opacity:0.5;fill:#ff665c"/></svg>