<svg xmlns="http://www.w3.org/2000/svg" width="1600" height="785"><style>.a{fill-opacity:0.5;fill:#fff;}.b{fill-opacity:0.5;fill:#272726;}.c{fill-opacity:0.5;fill:#262825;}.d{fill-opacity:0.5;fill:#262826;}.e{fill-opacity:0.5;fill:#272928;}.f{fill-opacity:0.5;fill:#262729;}</style><rect width="1600" height="785" fill="#48483f"/><path d="M1611 531L1463 461 1359 152Z" style="fill-opacity:0.5;fill:#f3c5b2"/><path d="M1145 800L942 438 952 40Z" style="fill-opacity:0.5;fill:#c3a09a"/><path d="M233 89L338 384 313 38Z" style="fill-opacity:0.5;fill:#f3ffb4"/><path d="M1370 118L1046 5 1186 145Z" style="fill-opacity:0.5;fill:#d8f982"/><path d="M759 410L749 208 816 346Z" style="fill-opacity:0.5;fill:#ffffa3"/><path d="M356 434L196 493 294 379Z" style="fill-opacity:0.5;fill:#ffffc3"/><path d="M563 350L581 163 370 281Z" style="fill-opacity:0.5;fill:#bda9a5"/><path d="M-16 793L125 271 493 779Z" style="fill-opacity:0.5;fill:#151619"/><path d="M475 526L651 484 498 309Z" style="fill-opacity:0.5;fill:#b79c9d"/><path d="M706 96L699 42 823-16Z" style="fill-opacity:0.5;fill:#ffffd1"/><path d="M494 14L390 84 367 5Z" style="fill-opacity:0.5;fill:#e9ffc3"/><path d="M15 296L-13 592 188 54Z" style="fill-opacity:0.5;fill:#c2a29f"/><path d="M1337 605L1201 634 1235 582Z" style="fill-opacity:0.5;fill:#ffffe2"/><path d="M1449 265L1307 206 1253-16Z" style="fill-opacity:0.5;fill:#bba884"/><path d="M706 291L697 181 758 81Z" style="fill-opacity:0.5;fill:#f2ff6c"/><path d="M1037 225L926 207 924 108Z" style="fill-opacity:0.5;fill:#e9c9c0"/><path d="M320 462L188 494 38 440Z" style="fill-opacity:0.5;fill:#c5a89a"/><path d="M744 406L707 495 670 407Z" style="fill-opacity:0.5;fill:#ecffa2"/><path d="M854 369L906 386 971 347Z" style="fill-opacity:0.5;fill:#ffffbc"/><path d="M501 232L360 244 504 303Z" style="fill-opacity:0.5;fill:#000305"/><path d="M431 269L513 324 348 272Z" class="a"/><path d="M294 103L366 262 276 164Z" style="fill-opacity:0.5;fill:#ffffd8"/><path d="M1579 800L1359 568 1100 774Z" style="fill-opacity:0.5;fill:#121618"/><path d="M1134 800L1066 389 1027 771Z" style="fill-opacity:0.5;fill:#967b73"/><path d="M1072 800L857 416 511 771Z" style="fill-opacity:0.5;fill:#17191d"/><path d="M1426 631L1576 677 1361 540Z" style="fill-opacity:0.5;fill:#b6dd4a"/><path d="M735 122L842 144 804 105Z" style="fill-opacity:0.5;fill:#fcffc1"/><path d="M1007 340L1364 216 1378 449Z" style="fill-opacity:0.5;fill:#101217"/><path d="M1320 33L1330 68 1201 97Z" style="fill-opacity:0.5;fill:#f2ffbd"/><path d="M1549 484L1259 474 1461 609Z" style="fill-opacity:0.5;fill:#191919"/><path d="M255 281L278 220 379 295Z" style="fill-opacity:0.5;fill:#dbe5c1"/><path d="M488 509L512 467 350 464Z" style="fill-opacity:0.5;fill:#d9b8b7"/><path d="M677 459L552 461 687 2Z" style="fill-opacity:0.5;fill:#1d1e24"/><path d="M413 195L373 50 280 97Z" style="fill-opacity:0.5;fill:#111216"/><path d="M1242 101L1495-16 1615 104Z" style="fill-opacity:0.5;fill:#17261d"/><path d="M1108 275L839 12 1157 67Z" style="fill-opacity:0.5;fill:#1f2322"/><path d="M576 490L773 502 575 705Z" style="fill-opacity:0.5;fill:#121317"/><path d="M966 348L808 464 1016 556Z" style="fill-opacity:0.5;fill:#45413d"/><path d="M598 259L502 156 575 93Z" style="fill-opacity:0.5;fill:#9f8385"/><path d="M114 260L245 432 262 221Z" style="fill-opacity:0.5;fill:#0e1014"/><path d="M236 170L278 44 152 221Z" style="fill-opacity:0.5;fill:#b5da4e"/><path d="M57 202L160 217 143 105Z" style="fill-opacity:0.5;fill:#c1a198"/><path d="M478 679L404 450 16 789Z" style="fill-opacity:0.5;fill:#202120"/><path d="M1550 463L1444 248 1615 257Z" style="fill-opacity:0.5;fill:#161518"/><path d="M1286 453L1046 527 1346 596Z" style="fill-opacity:0.5;fill:#151618"/><path d="M560 537L457 633 569 743Z" style="fill-opacity:0.5;fill:#8e7278"/><path d="M229 141L280 157 279 99Z" style="fill-opacity:0.5;fill:#0a0f18"/><path d="M-16 218L68 234 -16 397Z" style="fill-opacity:0.5;fill:#101216"/><path d="M-16 224L-11 29 244 29Z" style="fill-opacity:0.5;fill:#1a1d1e"/><path d="M988 456L928 475 876 457Z" style="fill-opacity:0.5;fill:#ffe1d6"/><path d="M595 17L415 45 431 277Z" style="fill-opacity:0.5;fill:#1a2120"/><path d="M1229 639L1181 570 1048 538Z" style="fill-opacity:0.5;fill:#a6c94e"/><path d="M369 59L334 38 242 84Z" style="fill-opacity:0.5;fill:#d8ff8c"/><path d="M-16 472L77 455 -16 403Z" style="fill-opacity:0.5;fill:#eed0c0"/><path d="M926 223L975 361 780 308Z" style="fill-opacity:0.5;fill:#17171b"/><path d="M1151 455L966 447 1062 479Z" style="fill-opacity:0.5;fill:#ebcab9"/><path d="M1259 446L1228 470 1157 459Z" style="fill-opacity:0.5;fill:#ffd1bd"/><path d="M1246 87L1183 151 1186 66Z" style="fill-opacity:0.5;fill:#edfec0"/><path d="M1173 249L1063 327 1116 260Z" style="fill-opacity:0.5;fill:#cdf07e"/><path d="M958 197L961 253 1170 203Z" style="fill-opacity:0.5;fill:#a98f8a"/><path d="M767 199L903 207 905 36Z" style="fill-opacity:0.5;fill:#181b1d"/><path d="M278 246L344 374 275 406Z" style="fill-opacity:0.5;fill:#19201b"/><path d="M249 412L253 467 345 404Z" style="fill-opacity:0.5;fill:#f6ffbe"/><path d="M537 433L362 276 370 461Z" style="fill-opacity:0.5;fill:#15181c"/><path d="M415 44L408 128 377 5Z" style="fill-opacity:0.5;fill:#ffffa6"/><path d="M1610 246L1499 15 1324 129Z" style="fill-opacity:0.5;fill:#262525"/><path d="M370 286L362 254 315 340Z" style="fill-opacity:0.5;fill:#f9ffa4"/><path d="M456 11L408 42 499 24Z" class="a"/><path d="M1144 15L1180 74 1398 18Z" style="fill-opacity:0.5;fill:#10291f"/><path d="M557 473L657 486 695 446Z" style="fill-opacity:0.5;fill:#ceb8ad"/><path d="M1495 468L1615 503 1544 595Z" style="fill-opacity:0.5;fill:#8e7067"/><path d="M739 16L690 76 770 52Z" style="fill-opacity:0.5;fill:#faffde"/><path d="M726 387L746 441 697 381Z" style="fill-opacity:0.5;fill:#ffffb7"/><path d="M1462 236L1417 357 1358 211Z" style="fill-opacity:0.5;fill:#8b6e69"/><path d="M755 38L922-16 583 1Z" style="fill-opacity:0.5;fill:#64ba76"/><path d="M1368 468L1348 450 1429 431Z" style="fill-opacity:0.5;fill:#efc0ba"/><path d="M818 387L877 361 798 328Z" style="fill-opacity:0.5;fill:#b6d750"/><path d="M788 245L578 242 648 199Z" style="fill-opacity:0.5;fill:#978d76"/><path d="M773 410L754 378 787 338Z" class="a"/><path d="M1239 147L1375 95 1294 94Z" style="fill-opacity:0.5;fill:#d2f078"/><path d="M446 9L386 6 417 40Z" style="fill-opacity:0.5;fill:#004024"/><path d="M1118 800L1104 579 1401 704Z" style="fill-opacity:0.5;fill:#252725"/><path d="M524 444L559 411 576 486Z" style="fill-opacity:0.5;fill:#d7c0b9"/><path d="M783 314L794 428 819 398Z" style="fill-opacity:0.5;fill:#00000f"/><path d="M302 346L352 278 343 235Z" style="fill-opacity:0.5;fill:#0e1415"/><path d="M683 468L802 458 714 490Z" style="fill-opacity:0.5;fill:#ccbcac"/><path d="M1283 223L1174 201 1297 193Z" style="fill-opacity:0.5;fill:#b49195"/><path d="M1340 215L1398 187 1327 126Z" style="fill-opacity:0.5;fill:#d6aea1"/><path d="M591 434L640 219 768 328Z" style="fill-opacity:0.5;fill:#1c1f1f"/><path d="M586 10L601 234 742 110Z" style="fill-opacity:0.5;fill:#1e2323"/><path d="M1078 29L800 113 759 19Z" style="fill-opacity:0.5;fill:#1d2b22"/><path d="M330 214L199 205 243 158Z" style="fill-opacity:0.5;fill:#202a0d"/><path d="M416-3L545 33 679-3Z" style="fill-opacity:0.5;fill:#49a77d"/><path d="M343 423L390 478 371 492Z" style="fill-opacity:0.5;fill:#dacab1"/><path d="M269 273L280 325 265 345Z" style="fill-opacity:0.5;fill:#ebfdb6"/><path d="M723 466L751 457 705 391Z" style="fill-opacity:0.5;fill:#150f27"/><path d="M1233 452L1036 298 1019 411Z" style="fill-opacity:0.5;fill:#202327"/><path d="M1005 449L953 235 1011 258Z" style="fill-opacity:0.5;fill:#b4a09c"/><path d="M377 225L357 265 325 204Z" style="fill-opacity:0.5;fill:#dae083"/><path d="M1080 5L1119 66 1016-16Z" style="fill-opacity:0.5;fill:#c8ff6d"/><path d="M477 292L531 349 400 271Z" style="fill-opacity:0.5;fill:#fffff6"/><path d="M772 235L790 318 752 315Z" style="fill-opacity:0.5;fill:#edff5c"/><path d="M489 398L387 288 469 309Z" style="fill-opacity:0.5;fill:#0f1415"/><path d="M1211 633L1212 601 1322 591Z" style="fill-opacity:0.5;fill:#f4ffbc"/><path d="M1454 452L1546 445 1569 490Z" style="fill-opacity:0.5;fill:#f5dac1"/><path d="M771 127L894 372 787 310Z" style="fill-opacity:0.5;fill:#1e1f21"/><path d="M316 117L317 158 276 114Z" class="a"/><path d="M1013 448L978 647 959 480Z" style="fill-opacity:0.5;fill:#20221e"/><path d="M1122 290L1005 286 1031 211Z" style="fill-opacity:0.5;fill:#181819"/><path d="M56 342L49 280 112 291Z" style="fill-opacity:0.5;fill:#d0bbb8"/><path d="M1036 321L1092 282 1109 309Z" style="fill-opacity:0.5;fill:#bbd77d"/><path d="M1442 629L1615 626 1569 700Z" style="fill-opacity:0.5;fill:#86884b"/><path d="M1424 245L1508 217 1600 240Z" style="fill-opacity:0.5;fill:#a98370"/><path d="M1409 557L1313 539 1459 632Z" style="fill-opacity:0.5;fill:#96b835"/><path d="M408 33L358-5 336 5Z" style="fill-opacity:0.5;fill:#d7ffcc"/><path d="M483 513L280 484 448 717Z" style="fill-opacity:0.5;fill:#212123"/><path d="M457 626L598 768 445 800Z" style="fill-opacity:0.5;fill:#5f5052"/><path d="M715 143L689 248 739 169Z" style="fill-opacity:0.5;fill:#e6ff75"/><path d="M408 268L477 297 348 283Z" class="a"/><path d="M295 26L199 143 187 33Z" style="fill-opacity:0.5;fill:#1d2621"/><path d="M1177 223L1133 295 1305 235Z" style="fill-opacity:0.5;fill:#16161b"/><path d="M432 34L631 132 734 14Z" style="fill-opacity:0.5;fill:#27332a"/><path d="M38 1L418-16 226 45Z" style="fill-opacity:0.5;fill:#397d5a"/><path d="M1101 64L1170 166 1136 27Z" style="fill-opacity:0.5;fill:#768055"/><path d="M410 172L306 165 360 224Z" style="fill-opacity:0.5;fill:#191d18"/><path d="M965 634L922 751 939 513Z" style="fill-opacity:0.5;fill:#696e52"/><path d="M1236 54L1252 125 1274 107Z" style="fill-opacity:0.5;fill:#232420"/><path d="M314 337L323 321 363 374Z" style="fill-opacity:0.5;fill:#e3e6e3"/><path d="M1015 638L1074 558 1020 409Z" style="fill-opacity:0.5;fill:#b09384"/><path d="M91 194L-16 268 110 231Z" style="fill-opacity:0.5;fill:#383434"/><path d="M1086 26L965-16 832 12Z" style="fill-opacity:0.5;fill:#439e70"/><path d="M278 238L327 299 324 240Z" style="fill-opacity:0.5;fill:#ffffea"/><path d="M877 375L892 376 872 427Z" style="fill-opacity:0.5;fill:#e9efbd"/><path d="M1575 126L1615 109 1595 167Z" style="fill-opacity:0.5;fill:#c8a495"/><path d="M676 427L719 430 677 400Z" style="fill-opacity:0.5;fill:#ffffa0"/><path d="M1562 411L1615 436 1604 407Z" style="fill-opacity:0.5;fill:#fccda6"/><path d="M758 53L766 149 703 80Z" style="fill-opacity:0.5;fill:#6c8843"/><path d="M1584 197L1420 158 1412 237Z" style="fill-opacity:0.5;fill:#1b1c1e"/><path d="M-16 689L59 455 308 505Z" class="b"/><path d="M90 169L143 64 198 87Z" style="fill-opacity:0.5;fill:#816b64"/><path d="M553 551L547 412 517 543Z" style="fill-opacity:0.5;fill:#b79686"/><path d="M817 471L823 388 836 450Z" style="fill-opacity:0.5;fill:#b4af9c"/><path d="M927 377L964 354 901 356Z" style="fill-opacity:0.5;fill:#ecffbe"/><path d="M1433 623L1562 715 1370 800Z" style="fill-opacity:0.5;fill:#242525"/><path d="M1269 125L1230 198 1351 191Z" style="fill-opacity:0.5;fill:#362f2f"/><path d="M905 153L995 183 936 76Z" style="fill-opacity:0.5;fill:#88716d"/><path d="M1280 451L1292 434 1339 442Z" style="fill-opacity:0.5;fill:#e5b192"/><path d="M1138 768L1044 793 1077 631Z" style="fill-opacity:0.5;fill:#8e7571"/><path d="M903 212L889 235 866 217Z" style="fill-opacity:0.5;fill:#e0b7b2"/><path d="M193 71L391 30 210 19Z" style="fill-opacity:0.5;fill:#1e2b23"/><path d="M260 110L391 105 372 46Z" style="fill-opacity:0.5;fill:#30302c"/><path d="M961 368L884 384 913 461Z" style="fill-opacity:0.5;fill:#191d24"/><path d="M311 164L332 207 250 160Z" style="fill-opacity:0.5;fill:#f8ffdb"/><path d="M575 182L506 114 575 139Z" style="fill-opacity:0.5;fill:#baa09b"/><path d="M787 107L764 126 848 138Z" style="fill-opacity:0.5;fill:#e1fcb7"/><path d="M497 527L509 434 486 448Z" style="fill-opacity:0.5;fill:#d6c3c0"/><path d="M1047 214L928 201 939 172Z" style="fill-opacity:0.5;fill:#dfcdbe"/><path d="M272 245L254 261 276 322Z" style="fill-opacity:0.5;fill:#e7efcc"/><path d="M693 433L662 480 544 377Z" style="fill-opacity:0.5;fill:#3c3a41"/><path d="M1089 463L1345 565 1196 598Z" style="fill-opacity:0.5;fill:#252723"/><path d="M190 216L250 206 296 229Z" style="fill-opacity:0.5;fill:#a98984"/><path d="M1465 368L1477 314 1408 341Z" style="fill-opacity:0.5;fill:#d3baab"/><path d="M98 294L33 422 146 457Z" style="fill-opacity:0.5;fill:#453d3a"/><path d="M1021 337L975 363 1022 372Z" style="fill-opacity:0.5;fill:#e8d5c7"/><path d="M53 250L88 271 113 242Z" style="fill-opacity:0.5;fill:#e1c7bc"/><path d="M1211 34L1354-10 1066-1Z" style="fill-opacity:0.5;fill:#3a835d"/><path d="M210 160L190 165 191 180Z" class="a"/><path d="M796 457L721 391 822 417Z" style="fill-opacity:0.5;fill:#1e212c"/><path d="M50 217L77 194 -16 213Z" style="fill-opacity:0.5;fill:#b3918c"/><path d="M269 61L306 83 259 112Z" style="fill-opacity:0.5;fill:#9bc611"/><path d="M1413 322L1379 263 1411 233Z" style="fill-opacity:0.5;fill:#bc9f8f"/><path d="M530 231L532 253 599 214Z" style="fill-opacity:0.5;fill:#2c2427"/><path d="M1144 226L1239 212 1136 197Z" style="fill-opacity:0.5;fill:#8d7479"/><path d="M382 78L452 29 383 46Z" style="fill-opacity:0.5;fill:#ebff97"/><path d="M853 207L716 202 733 235Z" style="fill-opacity:0.5;fill:#645356"/><path d="M1087 673L1112 578 1055 623Z" style="fill-opacity:0.5;fill:#bc9f8c"/><path d="M163 472L163 455 103 455Z" style="fill-opacity:0.5;fill:#ebd3ca"/><path d="M464 218L404 234 344 217Z" style="fill-opacity:0.5;fill:#9d7e84"/><path d="M1128 44L1175 57 1167 101Z" style="fill-opacity:0.5;fill:#c8f140"/><path d="M715 82L698 205 636 257Z" style="fill-opacity:0.5;fill:#222324"/><path d="M1490 465L1401 440 1432 472Z" style="fill-opacity:0.5;fill:#a98586"/><path d="M1511 446L1445 407 1486 394Z" style="fill-opacity:0.5;fill:#dbc6bb"/><path d="M1436 365L1467 436 1402 466Z" style="fill-opacity:0.5;fill:#433738"/><path d="M311 207L263 275 296 183Z" style="fill-opacity:0.5;fill:#d7ec6b"/><path d="M1266 52L1235 103 1343 44Z" style="fill-opacity:0.5;fill:#cfec9d"/><path d="M587 211L479 236 526 199Z" style="fill-opacity:0.5;fill:#d2b39d"/><path d="M976 409L989 435 1018 408Z" style="fill-opacity:0.5;fill:#f8dec9"/><path d="M963 578L1079 674 949 679Z" style="fill-opacity:0.5;fill:#2c2829"/><path d="M519 350L543 361 563 342Z" style="fill-opacity:0.5;fill:#d2bab8"/><path d="M674 460L673 448 700 442Z" style="fill-opacity:0.5;fill:#fffff5"/><path d="M940 511L975 513 950 551Z" style="fill-opacity:0.5;fill:#96b32c"/><path d="M370 458L309 380 299 405Z" style="fill-opacity:0.5;fill:#d3e2ad"/><path d="M573 374L644 233 577 255Z" style="fill-opacity:0.5;fill:#1f1f22"/><path d="M1524 14L1602 14 1604 90Z" style="fill-opacity:0.5;fill:#12271d"/><path d="M1546 640L1305 506 1505 464Z" style="fill-opacity:0.5;fill:#2b2a29"/><path d="M506 143L506 193 656 213Z" style="fill-opacity:0.5;fill:#5b4f51"/><path d="M387 30L355 111 363 18Z" style="fill-opacity:0.5;fill:#203224"/><path d="M1069 457L1326 432 1031 310Z" style="fill-opacity:0.5;fill:#282a2d"/><path d="M1441 299L1387 287 1486 278Z" style="fill-opacity:0.5;fill:#36302e"/><path d="M1323 619L1329 589 1227 629Z" style="fill-opacity:0.5;fill:#90b07d"/><path d="M1458 608L1481 637 1422 620Z" style="fill-opacity:0.5;fill:#ccdca4"/><path d="M299 229L324 213 349 257Z" style="fill-opacity:0.5;fill:#423536"/><path d="M828 360L871 385 836 480Z" style="fill-opacity:0.5;fill:#262632"/><path d="M-16 495L48 475 23 506Z" style="fill-opacity:0.5;fill:#c6a7ab"/><path d="M296 534L-14 513 79 755Z" class="c"/><path d="M275 410L275 323 263 366Z" style="fill-opacity:0.5;fill:#a7b875"/><path d="M39 401L-16 418 13 328Z" style="fill-opacity:0.5;fill:#4e4548"/><path d="M722 356L706 388 694 387Z" style="fill-opacity:0.5;fill:#f5ffaf"/><path d="M1027 222L954 279 991 225Z" style="fill-opacity:0.5;fill:#d4bbac"/><path d="M757-16L843-13 759 34Z" style="fill-opacity:0.5;fill:#b5cb56"/><path d="M1030 349L1036 215 1112 217Z" class="b"/><path d="M1609-1L1388-1 1496 30Z" style="fill-opacity:0.5;fill:#3b7351"/><path d="M286 329L290 254 271 262Z" style="fill-opacity:0.5;fill:#121014"/><path d="M1128 69L1109 57 1139 34Z" style="fill-opacity:0.5;fill:#1f2124"/><path d="M1405 468L1384 472 1364 446Z" style="fill-opacity:0.5;fill:#d5b0af"/><path d="M750 250L758 426 701 249Z" style="fill-opacity:0.5;fill:#222924"/><path d="M1072 730L1017 800 999 674Z" style="fill-opacity:0.5;fill:#4d4442"/><path d="M457 225L363 280 361 235Z" style="fill-opacity:0.5;fill:#2f2f29"/><path d="M1615 517L1609 422 1545 443Z" style="fill-opacity:0.5;fill:#211f1e"/><path d="M895 461L742 477 814 448Z" style="fill-opacity:0.5;fill:#7b605f"/><path d="M629 231L571 228 499 282Z" style="fill-opacity:0.5;fill:#ad8f91"/><path d="M778 398L774 303 754 369Z" style="fill-opacity:0.5;fill:#ebffbe"/><path d="M410 408L353 296 333 338Z" style="fill-opacity:0.5;fill:#171918"/><path d="M1018 454L985 438 920 478Z" style="fill-opacity:0.5;fill:#ba9c90"/><path d="M507 426L527 460 516 523Z" style="fill-opacity:0.5;fill:#39312e"/><path d="M238 226L249 424 271 319Z" style="fill-opacity:0.5;fill:#1b1e22"/><path d="M689 211L735 221 711 287Z" style="fill-opacity:0.5;fill:#a1bc72"/><path d="M507 572L464 633 510 484Z" style="fill-opacity:0.5;fill:#856a6d"/><path d="M1027 437L1043 506 1096 461Z" style="fill-opacity:0.5;fill:#cdb6a7"/><path d="M336 431L285 457 408 520Z" style="fill-opacity:0.5;fill:#474837"/><path d="M30 33L-16 0 143 9Z" style="fill-opacity:0.5;fill:#3f8960"/><path d="M1442 297L1481 317 1421 316Z" style="fill-opacity:0.5;fill:#e9cfb7"/><path d="M1061 486L1094 531 1008 563Z" style="fill-opacity:0.5;fill:#6f5d54"/><path d="M280 330L335 350 381 460Z" style="fill-opacity:0.5;fill:#1f2023"/><path d="M1235 184L1264 133 1250 121Z" style="fill-opacity:0.5;fill:#b6c090"/><path d="M1438 600L1408 633 1404 687Z" style="fill-opacity:0.5;fill:#81856a"/><path d="M1197 207L1255 133 1202 135Z" style="fill-opacity:0.5;fill:#2a2c2c"/><path d="M697 79L762 38 742 23Z" style="fill-opacity:0.5;fill:#feffe1"/><path d="M1571 402L1549 460 1467 339Z" style="fill-opacity:0.5;fill:#5e5144"/><path d="M1083 592L1052 579 1010 652Z" style="fill-opacity:0.5;fill:#544847"/><path d="M1545 527L1564 566 1514 555Z" style="fill-opacity:0.5;fill:#b1918d"/><path d="M712 752L678 665 703 648Z" style="fill-opacity:0.5;fill:#636058"/><path d="M94 340L30 310 39 348Z" style="fill-opacity:0.5;fill:#bbaaa6"/><path d="M1100 18L1218 75 1335 12Z" style="fill-opacity:0.5;fill:#2a342d"/><path d="M982 367L989 405 1076 408Z" style="fill-opacity:0.5;fill:#524b49"/><path d="M547 340L492 353 592 290Z" style="fill-opacity:0.5;fill:#463f43"/><path d="M708 421L701 475 724 494Z" style="fill-opacity:0.5;fill:#e2fcbd"/><path d="M750 149L776 234 721 209Z" style="fill-opacity:0.5;fill:#272a26"/><path d="M1222 596L1222 686 1199 610Z" style="fill-opacity:0.5;fill:#85935e"/><path d="M441 466L487 472 394 494Z" style="fill-opacity:0.5;fill:#cab4ab"/><path d="M425 214L354 219 300 83Z" style="fill-opacity:0.5;fill:#212223"/><path d="M1175 227L1104 274 1063 238Z" style="fill-opacity:0.5;fill:#1f1f21"/><path d="M1542 479L1564 538 1486 515Z" style="fill-opacity:0.5;fill:#373535"/><path d="M498 17L504 221 427 212Z" style="fill-opacity:0.5;fill:#282929"/><path d="M546 322L555 244 563 294Z" style="fill-opacity:0.5;fill:#d6bcc3"/><path d="M869 206L766 237 885 375Z" style="fill-opacity:0.5;fill:#2a2929"/><path d="M995 271L960 359 937 343Z" style="fill-opacity:0.5;fill:#49413f"/><path d="M774 329L789 341 787 314Z" style="fill-opacity:0.5;fill:#000006"/><path d="M132 40L-16 208 78 191Z" style="fill-opacity:0.5;fill:#212122"/><path d="M1064 15L1176 198 778 27Z" style="fill-opacity:0.5;fill:#29302a"/><path d="M552 111L512 213 514 101Z" style="fill-opacity:0.5;fill:#7a6863"/><path d="M1242 466L1084 513 1097 465Z" style="fill-opacity:0.5;fill:#282327"/><path d="M1145 120L1232 97 1259 136Z" style="fill-opacity:0.5;fill:#97b150"/><path d="M947 368L899 459 965 456Z" style="fill-opacity:0.5;fill:#323136"/><path d="M1107 64L1126 31 1102 39Z" style="fill-opacity:0.5;fill:#e7ecce"/><path d="M586 644L705 486 942 677Z" style="fill-opacity:0.5;fill:#242723"/><path d="M551 363L566 373 518 393Z" style="fill-opacity:0.5;fill:#c5acaa"/><path d="M1133 76L1177 119 1180 156Z" style="fill-opacity:0.5;fill:#323337"/><path d="M782 266L756 300 751 221Z" style="fill-opacity:0.5;fill:#aad629"/><path d="M887 364L949 367 895 381Z" style="fill-opacity:0.5;fill:#e8ffbc"/><path d="M1001 342L974 315 1009 326Z" style="fill-opacity:0.5;fill:#403436"/><path d="M1028 313L991 285 988 319Z" style="fill-opacity:0.5;fill:#dac4bc"/><path d="M556 376L507 454 595 384Z" style="fill-opacity:0.5;fill:#4e4546"/><path d="M214 318L66 208 281 229Z" style="fill-opacity:0.5;fill:#302d2d"/><path d="M273 477L325 438 299 417Z" style="fill-opacity:0.5;fill:#a8cf46"/><path d="M1487 109L1406 162 1615 118Z" style="fill-opacity:0.5;fill:#574e48"/><path d="M1105 38L1060-9 1248-3Z" style="fill-opacity:0.5;fill:#407656"/><path d="M356 433L362 291 521 341Z" class="d"/><path d="M547 473L629 491 577 518Z" style="fill-opacity:0.5;fill:#6b5959"/><path d="M1494 376L1599 239 1606 384Z" style="fill-opacity:0.5;fill:#212423"/><path d="M516 443L502 336 459 406Z" style="fill-opacity:0.5;fill:#5e5659"/><path d="M722 404L679 370 737 465Z" style="fill-opacity:0.5;fill:#3c3b37"/><path d="M1066 571L1015 571 1092 537Z" style="fill-opacity:0.5;fill:#d1b8a1"/><path d="M311 46L318 74 362 45Z" style="fill-opacity:0.5;fill:#c1d9a2"/><path d="M792 312L810 331 773 313Z" style="fill-opacity:0.5;fill:#fffffe"/><path d="M467 229L447 276 372 262Z" style="fill-opacity:0.5;fill:#343232"/><path d="M1157 800L1097 717 1099 604Z" style="fill-opacity:0.5;fill:#5a4e4b"/><path d="M1342 16L1615 16 1371 157Z" style="fill-opacity:0.5;fill:#293029"/><path d="M582 442L590 438 583 429Z" class="a"/><path d="M808 10L927 163 733 79Z" style="fill-opacity:0.5;fill:#2c302e"/><path d="M249 77L243 121 296 47Z" style="fill-opacity:0.5;fill:#d8fa5d"/><path d="M1196 64L1248 86 1170 116Z" style="fill-opacity:0.5;fill:#d9e7b7"/><path d="M802 349L745 454 828 458Z" style="fill-opacity:0.5;fill:#2f3136"/><path d="M1 425L31 462 133 457Z" style="fill-opacity:0.5;fill:#a28982"/><path d="M539 492L534 510 577 486Z" style="fill-opacity:0.5;fill:#ead1b8"/><path d="M320 182L323 141 280 154Z" style="fill-opacity:0.5;fill:#adca67"/><path d="M1190 800L1207 623 1098 617Z" style="fill-opacity:0.5;fill:#212322"/><path d="M823 199L799 221 851 204Z" style="fill-opacity:0.5;fill:#b0938e"/><path d="M1327 605L1301 579 1230 584Z" style="fill-opacity:0.5;fill:#70874c"/><path d="M1553 501L1581 466 1585 571Z" style="fill-opacity:0.5;fill:#977a64"/><path d="M127 128L147 224 79 187Z" style="fill-opacity:0.5;fill:#b09a8d"/><path d="M947 263L961 218 876 228Z" style="fill-opacity:0.5;fill:#635457"/><path d="M1530 610L1604 764 1615 481Z" style="fill-opacity:0.5;fill:#614c4d"/><path d="M318 130L286 106 281 136Z" class="a"/><path d="M639 606L952 476 895 798Z" style="fill-opacity:0.5;fill:#272925"/><path d="M1375 162L1383 221 1316 204Z" style="fill-opacity:0.5;fill:#c2a89d"/><path d="M768 330L732 291 753 340Z" style="fill-opacity:0.5;fill:#161820"/><path d="M1182 120L1175 140 1204 139Z" style="fill-opacity:0.5;fill:#eef3e4"/><path d="M1149 273L1148 251 1090 302Z" style="fill-opacity:0.5;fill:#bfd885"/><path d="M1036 374L952 397 999 397Z" style="fill-opacity:0.5;fill:#c1aba1"/><path d="M526 241L526 263 487 254Z" style="fill-opacity:0.5;fill:#cea9aa"/><path d="M596 436L578 462 674 459Z" style="fill-opacity:0.5;fill:#1f2220"/><path d="M998 333L960 339 977 360Z" style="fill-opacity:0.5;fill:#d3beb0"/><path d="M831 219L814 342 925 353Z" class="d"/><path d="M1290 618L1256 591 1211 613Z" style="fill-opacity:0.5;fill:#eefccd"/><path d="M1191 475L1130 447 1199 458Z" style="fill-opacity:0.5;fill:#b08e7f"/><path d="M1371 353L1370 446 1442 421Z" style="fill-opacity:0.5;fill:#26252d"/><path d="M611 459L608 475 566 477Z" style="fill-opacity:0.5;fill:#f0ddd4"/><path d="M351 489L466 500 377 462Z" style="fill-opacity:0.5;fill:#816b6c"/><path d="M210 212L126 221 117 182Z" style="fill-opacity:0.5;fill:#836e67"/><path d="M1289 441L1252 439 1218 458Z" style="fill-opacity:0.5;fill:#c9a08b"/><path d="M777 140L688 71 755 85Z" style="fill-opacity:0.5;fill:#859c50"/><path d="M495 650L510 491 558 536Z" style="fill-opacity:0.5;fill:#5a4945"/><path d="M480 16L393-16 369 7Z" style="fill-opacity:0.5;fill:#479271"/><path d="M538 483L556 431 529 428Z" style="fill-opacity:0.5;fill:#ddcabf"/><path d="M414 87L385 86 383 36Z" style="fill-opacity:0.5;fill:#d9f64c"/><path d="M525 283L505 281 511 313Z" style="fill-opacity:0.5;fill:#d9bcc2"/><path d="M1450 18L1330-16 1211 19Z" style="fill-opacity:0.5;fill:#36724f"/><path d="M1354 90L1285 103 1355 109Z" style="fill-opacity:0.5;fill:#bfd870"/><path d="M491 267L499 308 419 261Z" style="fill-opacity:0.5;fill:#212520"/><path d="M674 412L707 417 721 449Z" style="fill-opacity:0.5;fill:#ffffb1"/><path d="M268 265L316 348 321 307Z" style="fill-opacity:0.5;fill:#3e4837"/><path d="M306-16L379 24 170 13Z" style="fill-opacity:0.5;fill:#44805e"/><path d="M746 437L729 428 759 422Z" style="fill-opacity:0.5;fill:#bbb4a8"/><path d="M1014 524L1047 522 1037 538Z" style="fill-opacity:0.5;fill:#edcfb1"/><path d="M254 440L271 402 290 450Z" style="fill-opacity:0.5;fill:#f0fed1"/><path d="M260 126L239 101 267 102Z" style="fill-opacity:0.5;fill:#cac9c7"/><path d="M1105 765L1087 685 1040 687Z" style="fill-opacity:0.5;fill:#a4887f"/><path d="M17 377L53 389 -7 392Z" style="fill-opacity:0.5;fill:#b89c92"/><path d="M983 276L964 309 963 272Z" style="fill-opacity:0.5;fill:#e5cfc2"/><path d="M221 89L164 221 164 151Z" style="fill-opacity:0.5;fill:#282328"/><path d="M833 383L813 386 836 373Z" style="fill-opacity:0.5;fill:#fcffc6"/><path d="M899 463L879 455 894 452Z" style="fill-opacity:0.5;fill:#fff7ff"/><path d="M1534 414L1548 449 1471 442Z" style="fill-opacity:0.5;fill:#947a6c"/><path d="M1077 203L1034 219 983 206Z" style="fill-opacity:0.5;fill:#bd9f93"/><path d="M417 44L449 16 490 19Z" style="fill-opacity:0.5;fill:#fffffc"/><path d="M510 320L500 335 527 337Z" style="fill-opacity:0.5;fill:#ebf5d2"/><path d="M416 84L391 91 413 184Z" style="fill-opacity:0.5;fill:#65694d"/><path d="M999 435L1032 420 1010 416Z" style="fill-opacity:0.5;fill:#2a2523"/><path d="M726 390L708 383 713 404Z" style="fill-opacity:0.5;fill:#ffffb4"/><path d="M178 186L275 176 282 221Z" style="fill-opacity:0.5;fill:#2a2a30"/><path d="M1425 247L1360 205 1332 230Z" style="fill-opacity:0.5;fill:#6b5553"/><path d="M107 447L58 447 23 386Z" style="fill-opacity:0.5;fill:#64524a"/><path d="M1462 634L1486 608 1582 697Z" style="fill-opacity:0.5;fill:#82a33b"/><path d="M712 385L757 333 751 388Z" style="fill-opacity:0.5;fill:#191b20"/><path d="M1470 426L1458 456 1512 473Z" style="fill-opacity:0.5;fill:#cab3b1"/><path d="M267 115L211 122 203 190Z" style="fill-opacity:0.5;fill:#738e33"/><path d="M-16 326L16 277 38 337Z" style="fill-opacity:0.5;fill:#252626"/><path d="M721-16L772 24 573 23Z" style="fill-opacity:0.5;fill:#418164"/><path d="M1510 410L1483 408 1495 417Z" style="fill-opacity:0.5;fill:#271d22"/><path d="M1164 109L1156 160 1135 97Z" style="fill-opacity:0.5;fill:#8a9370"/><path d="M334 275L304 301 297 240Z" style="fill-opacity:0.5;fill:#eef8dc"/><path d="M751 472L804 520 723 480Z" style="fill-opacity:0.5;fill:#302b2e"/><path d="M1508 602L1430 605 1458 459Z" style="fill-opacity:0.5;fill:#2a2a29"/><path d="M359 376L443 301 397 288Z" style="fill-opacity:0.5;fill:#272a25"/><path d="M1498 436L1500 446 1476 439Z" style="fill-opacity:0.5;fill:#15121d"/><path d="M714 474L753 440 721 429Z" style="fill-opacity:0.5;fill:#2f3232"/><path d="M553 262L748 307 698 385Z" class="e"/><path d="M47 369L71 355 19 364Z" style="fill-opacity:0.5;fill:#d8c4c1"/><path d="M762 327L751 275 787 303Z" style="fill-opacity:0.5;fill:#eaff78"/><path d="M405 91L258 112 338 61Z" style="fill-opacity:0.5;fill:#3c3d31"/><path d="M939-16L920 27 776 19Z" style="fill-opacity:0.5;fill:#45815f"/><path d="M886 373L871 405 878 437Z" style="fill-opacity:0.5;fill:#b3b497"/><path d="M534 250L557 165 531 153Z" style="fill-opacity:0.5;fill:#554a45"/><path d="M707 158L737 182 749 99Z" style="fill-opacity:0.5;fill:#98c232"/><path d="M104 20L238 106 267 29Z" style="fill-opacity:0.5;fill:#2e342d"/><path d="M360 233L329 229 309 171Z" style="fill-opacity:0.5;fill:#e0e9a2"/><path d="M354 276L323 323 373 282Z" style="fill-opacity:0.5;fill:#ddea98"/><path d="M437 39L470 32 411 69Z" style="fill-opacity:0.5;fill:#141f10"/><path d="M761 404L786 373 787 344Z" style="fill-opacity:0.5;fill:#f5ffdd"/><path d="M1146 134L966 147 1014 203Z" class="f"/><path d="M1455 247L1542 214 1615 241Z" style="fill-opacity:0.5;fill:#7d6658"/><path d="M45 370L172 454 68 444Z" style="fill-opacity:0.5;fill:#3c3937"/><path d="M676 59L500 107 740 109Z" style="fill-opacity:0.5;fill:#403d3a"/><path d="M1183 424L1195 418 1187 410Z" style="fill-opacity:0.5;fill:#b0a1b8"/><path d="M481 237L438 220 506 220Z" style="fill-opacity:0.5;fill:#9b7e77"/><path d="M810 453L823 464 793 466Z" style="fill-opacity:0.5;fill:#c6aa97"/><path d="M202 494L95 457 -11 479Z" style="fill-opacity:0.5;fill:#4c4648"/><path d="M404 76L404 29 384 11Z" style="fill-opacity:0.5;fill:#effddd"/><path d="M478 466L376 356 386 469Z" style="fill-opacity:0.5;fill:#2f2f32"/><path d="M811 141L816 113 849 142Z" style="fill-opacity:0.5;fill:#91a872"/><path d="M255 449L213 470 162 465Z" style="fill-opacity:0.5;fill:#463d3e"/><path d="M1259 73L1279 89 1338 36Z" style="fill-opacity:0.5;fill:#d6e4b0"/><path d="M641 471L697 434 655 416Z" style="fill-opacity:0.5;fill:#333435"/><path d="M251 468L215 481 210 469Z" style="fill-opacity:0.5;fill:#e9cab0"/><path d="M1107 304L1096 304 1107 340Z" style="fill-opacity:0.5;fill:#838383"/><path d="M1422 602L1363 769 1227 631Z" class="d"/><path d="M1321 33L1259 50 1246 78Z" style="fill-opacity:0.5;fill:#76964a"/><path d="M293 218L275 177 322 208Z" style="fill-opacity:0.5;fill:#88ad1e"/><path d="M934 182L770 132 774 210Z" class="e"/><path d="M932 350L883 337 877 365Z" style="fill-opacity:0.5;fill:#171a1a"/><path d="M694 494L700 444 650 485Z" style="fill-opacity:0.5;fill:#766d5a"/><path d="M661 477L603 489 628 469Z" style="fill-opacity:0.5;fill:#e4cbba"/><path d="M1425 267L1425 253 1402 261Z" style="fill-opacity:0.5;fill:#302c25"/><path d="M1428 800L1563 688 1615 800Z" style="fill-opacity:0.5;fill:#4a4041"/><path d="M1259 124L1241 106 1289 81Z" style="fill-opacity:0.5;fill:#2c2328"/><path d="M1565 517L1519 472 1486 482Z" style="fill-opacity:0.5;fill:#846d65"/><path d="M400 277L511 333 456 282Z" style="fill-opacity:0.5;fill:#faffe5"/><path d="M586 694L590 750 431 800Z" style="fill-opacity:0.5;fill:#5b514f"/><path d="M1251 448L1328 622 1351 451Z" style="fill-opacity:0.5;fill:#34332f"/><path d="M767 406L757 339 783 385Z" style="fill-opacity:0.5;fill:#e9f4d3"/><path d="M1146 10L1253 77 1174 62Z" style="fill-opacity:0.5;fill:#2b312d"/><path d="M26 403L-14 427 -16 527Z" style="fill-opacity:0.5;fill:#d6c4b1"/><path d="M576 388L573 460 551 455Z" style="fill-opacity:0.5;fill:#645c62"/><path d="M846 346L803 343 817 363Z" style="fill-opacity:0.5;fill:#cee45e"/><path d="M1451 334L1525 433 1482 323Z" style="fill-opacity:0.5;fill:#a4856a"/><path d="M552 288L536 285 544 264Z" style="fill-opacity:0.5;fill:#2c2228"/><path d="M597 248L559 270 561 219Z" style="fill-opacity:0.5;fill:#6e5d5d"/><path d="M975-16L1068-12 1070 22Z" style="fill-opacity:0.5;fill:#87c17b"/><path d="M251 417L237 430 261 484Z" style="fill-opacity:0.5;fill:#849772"/><path d="M739 252L759 325 569 433Z" style="fill-opacity:0.5;fill:#282a29"/><path d="M1135 554L1190 609 1061 537Z" style="fill-opacity:0.5;fill:#94ac4c"/><path d="M727 401L784 430 734 360Z" class="f"/><path d="M403 27L433 14 412 43Z" style="fill-opacity:0.5;fill:#283f28"/><path d="M1520 424L1481 432 1439 399Z" style="fill-opacity:0.5;fill:#d8c1b1"/><path d="M644 216L671 206 620 199Z" style="fill-opacity:0.5;fill:#9b7d84"/><path d="M921 307L953 254 968 377Z" style="fill-opacity:0.5;fill:#48413c"/><path d="M1324 30L1422 10 1441 231Z" style="fill-opacity:0.5;fill:#2c302c"/><path d="M184 76L142 202 132 94Z" style="fill-opacity:0.5;fill:#836f64"/><path d="M261 482L178 449 217 449Z" style="fill-opacity:0.5;fill:#a1867a"/><path d="M349 283L370 276 357 226Z" style="fill-opacity:0.5;fill:#97b248"/><path d="M256 409L326 382 290 414Z" style="fill-opacity:0.5;fill:#8baa4d"/><path d="M832 347L886 370 861 379Z" style="fill-opacity:0.5;fill:#7c9e23"/><path d="M715 365L724 352 738 350Z" style="fill-opacity:0.5;fill:#e8ebb4"/><path d="M1150 401L1141 390 1138 407Z" style="fill-opacity:0.5;fill:#9d95b2"/><path d="M1349 422L1366 424 1347 441Z" style="fill-opacity:0.5;fill:#7e7c90"/><path d="M575 627L495 647 578 594Z" style="fill-opacity:0.5;fill:#3d393a"/><path d="M38 214L61 211 62 284Z" style="fill-opacity:0.5;fill:#625552"/><path d="M1133 58L1148 42 1170 64Z" style="fill-opacity:0.5;fill:#e8ff73"/><path d="M1009 558L989 531 1058 546Z" style="fill-opacity:0.5;fill:#564742"/><path d="M1055 447L1036 434 1111 419Z" style="fill-opacity:0.5;fill:#2f2d30"/><path d="M660 51L573 192 707 209Z" style="fill-opacity:0.5;fill:#2c2d2c"/><path d="M1031 412L1062 435 1034 431Z" style="fill-opacity:0.5;fill:#c5ac9d"/><path d="M505 536L442 480 506 474Z" style="fill-opacity:0.5;fill:#9c8583"/><path d="M241 139L286 159 278 106Z" style="fill-opacity:0.5;fill:#404543"/><path d="M1235 205L1198 245 1330 240Z" style="fill-opacity:0.5;fill:#3e3939"/><path d="M94 269L78 324 131 254Z" style="fill-opacity:0.5;fill:#7f6b67"/><path d="M140 214L136 201 186 207Z" style="fill-opacity:0.5;fill:#c7b29c"/><path d="M1418 317L1367 338 1463 455Z" style="fill-opacity:0.5;fill:#534648"/><path d="M360 15L341-8 401 20Z" style="fill-opacity:0.5;fill:#c9eeb0"/><path d="M707 166L726 188 700 225Z" style="fill-opacity:0.5;fill:#e2fb8d"/><path d="M548 639L561 722 515 677Z" style="fill-opacity:0.5;fill:#8b7877"/><path d="M1087 221L1172 217 1140 192Z" style="fill-opacity:0.5;fill:#7b6b72"/><path d="M860 378L826 363 827 374Z" style="fill-opacity:0.5;fill:#010011"/><path d="M80 342L49 361 16 352Z" style="fill-opacity:0.5;fill:#4d4742"/><path d="M581 157L551 139 566 192Z" style="fill-opacity:0.5;fill:#b6a2a1"/><path d="M1537 434L1521 465 1564 493Z" style="fill-opacity:0.5;fill:#e6ccb1"/><path d="M920 355L951 353 953 367Z" style="fill-opacity:0.5;fill:#effcc6"/><path d="M918 471L946 462 903 460Z" style="fill-opacity:0.5;fill:#f1d8c9"/><path d="M28 348L63 336 28 338Z" style="fill-opacity:0.5;fill:#e5d6ce"/><path d="M792 337L803 362 780 412Z" style="fill-opacity:0.5;fill:#171c1e"/><path d="M1380 439L1424 464 1388 456Z" style="fill-opacity:0.5;fill:#342c2e"/><path d="M1193 236L1105 304 1279 439Z" class="c"/><path d="M730 244L694 246 702 304Z" style="fill-opacity:0.5;fill:#617441"/><path d="M70 413L17 446 1 413Z" style="fill-opacity:0.5;fill:#977f73"/><path d="M361 289L386 268 436 278Z" style="fill-opacity:0.5;fill:#faffe9"/><path d="M295 383L321 381 356 431Z" style="fill-opacity:0.5;fill:#747f5a"/><path d="M1096 19L1132 23 1102 35Z" style="fill-opacity:0.5;fill:#1f281a"/><path d="M1552 604L1579 687 1615 633Z" style="fill-opacity:0.5;fill:#7d645f"/><path d="M979 211L969 230 1036 217Z" style="fill-opacity:0.5;fill:#77615c"/><path d="M753 231L758 213 711 219Z" style="fill-opacity:0.5;fill:#856f6a"/><path d="M785 282L787 308 809 326Z" style="fill-opacity:0.5;fill:#0c0d15"/><path d="M978 457L1008 458 986 435Z" style="fill-opacity:0.5;fill:#d9c2af"/><path d="M592 796L564 517 732 785Z" style="fill-opacity:0.5;fill:#272a28"/><path d="M973 457L945 771 1010 594Z" style="fill-opacity:0.5;fill:#292a28"/><path d="M150 201L149 163 172 211Z" style="fill-opacity:0.5;fill:#453932"/><path d="M1395 175L1330 121 1305 165Z" style="fill-opacity:0.5;fill:#9f7e6a"/><path d="M278 122L322 135 283 145Z" style="fill-opacity:0.5;fill:#effae9"/><path d="M-16 678L40 753 2 798Z" style="fill-opacity:0.5;fill:#474544"/><path d="M99 287L92 237 121 195Z" style="fill-opacity:0.5;fill:#a89187"/><path d="M353 274L290 319 312 336Z" style="fill-opacity:0.5;fill:#384034"/><path d="M1384 261L1415 274 1408 303Z" style="fill-opacity:0.5;fill:#c0a89d"/><path d="M762 114L738 176 743 121Z" style="fill-opacity:0.5;fill:#485530"/><path d="M1010 453L1002 447 1028 439Z" style="fill-opacity:0.5;fill:#201e22"/><path d="M293 230L263 275 259 259Z" style="fill-opacity:0.5;fill:#eae8d7"/><path d="M986 428L1008 417 1023 388Z" style="fill-opacity:0.5;fill:#dfcbbc"/><path d="M525 624L558 599 556 529Z" style="fill-opacity:0.5;fill:#907771"/><path d="M1427 345L1435 307 1460 369Z" style="fill-opacity:0.5;fill:#d7c4b9"/><path d="M348 375L281 300 271 396Z" style="fill-opacity:0.5;fill:#2c2d28"/><path d="M1306 236L1278 130 1311 136Z" style="fill-opacity:0.5;fill:#564942"/><path d="M1090 49L1139 106 1116 56Z" style="fill-opacity:0.5;fill:#91a16e"/><path d="M821 412L825 387 831 432Z" style="fill-opacity:0.5;fill:#d2d6a2"/><path d="M1082 284L1116 257 1100 292Z" style="fill-opacity:0.5;fill:#202220"/><path d="M588 232L590 242 619 232Z" style="fill-opacity:0.5;fill:#ddcbbe"/><path d="M732 61L695 56 702 83Z" style="fill-opacity:0.5;fill:#bbd895"/><path d="M34 293L68 328 91 273Z" style="fill-opacity:0.5;fill:#c0aba6"/><path d="M1316 530L1406 554 1318 557Z" style="fill-opacity:0.5;fill:#5f7236"/><path d="M297 465L281 512 353 471Z" style="fill-opacity:0.5;fill:#292826"/><path d="M473 615L511 663 485 666Z" style="fill-opacity:0.5;fill:#977f7a"/><path d="M928 326L879 374 862 319Z" style="fill-opacity:0.5;fill:#272926"/></svg>