<?xml version="1.0" standalone="no"?>
<!DOCTYPE svg PUBLIC "-//W3C//DTD SVG 20010904//EN"
 "http://www.w3.org/TR/2001/REC-SVG-20010904/DTD/svg10.dtd">
<svg version="1.0" xmlns="http://www.w3.org/2000/svg"
 width="449.000000pt" height="449.000000pt" viewBox="0 0 449.000000 449.000000"
 preserveAspectRatio="xMidYMid meet">
<metadata>
Created by potrace 1.11, written by Peter Selinger 2001-2013
</metadata>
<g transform="translate(0.000000,449.000000) scale(0.100000,-0.100000)"
fill="#000000" stroke="none">
<path d="M2248 4485 c-1 -1 -39 -5 -83 -9 -95 -7 -197 -34 -288 -76 -36 -16
-69 -30 -74 -30 -11 0 -163 -78 -195 -101 -14 -11 -30 -19 -36 -19 -12 0 -141
-96 -167 -125 -47 -51 -112 -131 -145 -179 -19 -28 -38 -53 -41 -56 -5 -5 -87
-141 -129 -215 -27 -48 -90 -199 -90 -217 0 -8 -6 -21 -14 -27 -14 -11 -28
-53 -111 -326 -54 -178 -54 -176 -60 -235 -4 -30 -9 -68 -12 -85 -23 -136 -23
-129 2 -410 7 -74 19 -161 24 -167 2 -2 4 -14 7 -28 6 -39 35 -112 55 -142 11
-14 19 -29 19 -32 0 -7 96 -154 135 -208 34 -46 34 -69 1 -198 -50 -191 -57
-210 -72 -210 -8 0 -12 4 -9 10 4 7 -3 7 -19 0 -31 -11 -220 -93 -296 -127
-30 -14 -77 -34 -105 -45 -27 -11 -54 -24 -59 -29 -6 -5 -16 -9 -22 -9 -19 0
-168 -71 -172 -81 -2 -5 -13 -14 -24 -20 -13 -7 -18 -7 -14 -1 3 6 2 13 -4 17
-7 4 -10 -176 -10 -549 l0 -556 1732 0 c1686 0 1731 0 1714 19 -9 10 -58 41
-109 68 -50 28 -139 76 -197 108 -169 93 -229 122 -334 157 -70 23 -100 39
-106 53 -4 11 -20 47 -35 79 -15 32 -33 76 -40 97 l-14 39 62 77 c34 42 81
101 104 131 23 30 63 67 90 82 116 67 438 397 528 540 45 71 140 268 169 349
15 41 42 99 61 130 38 61 81 165 91 217 3 19 18 46 33 61 15 16 34 39 42 53
14 23 68 151 74 175 1 6 5 17 8 25 28 69 89 310 94 370 13 146 6 326 -17 440
-16 84 -21 113 -24 169 -2 28 -10 59 -18 69 -8 9 -23 35 -33 57 -55 123 -122
241 -168 300 -92 118 -245 261 -362 339 -173 115 -419 208 -640 241 -27 5 -57
9 -65 10 -8 2 -43 6 -76 9 -34 3 -81 8 -105 11 -49 7 -445 15 -451 10z"/>
</g>
</svg>
