<svg version="1.1" width="300" height="275" xmlns="http://www.w3.org/2000/svg">
<rect x="0" y="0" width="300" height="275" fill="#f9f0ed" />
<g transform="scale(1, 1)">
<path d="M 234 256 L 262 158 L 262 290 Z" fill="#d40000" fill-opacity="0.501961" />
<path d="M -9 107 L 13 130 L 105 87 Z" fill="#bc0000" fill-opacity="0.501961" />
<path d="M 178 33 L 286 24 L 94 94 Z" fill="#a3521f" fill-opacity="0.501961" />
<path d="M 251 184 L 269 14 L 284 101 Z" fill="#c06322" fill-opacity="0.501961" />
<path d="M 39 100 L 258 17 L -16 -16 Z" fill="#ffffff" fill-opacity="0.501961" />
<path d="M 300 33 L 280 9 L 230 38 Z" fill="#3b423b" fill-opacity="0.501961" />
<path d="M 245 205 L 248 290 L 267 209 Z" fill="#f20000" fill-opacity="0.501961" />
<path d="M 264 35 L 237 286 L -16 141 Z" fill="#ffffff" fill-opacity="0.501961" />
<path d="M 256 290 L 279 46 L 315 215 Z" fill="#ffffff" fill-opacity="0.501961" />
<path d="M -8 129 L 70 108 L 52 94 Z" fill="#d80000" fill-opacity="0.501961" />
<path d="M -6 117 L 1 -16 L 252 20 Z" fill="#ffffff" fill-opacity="0.501961" />
<path d="M -16 113 L 259 278 L -15 290 Z" fill="#ffffff" fill-opacity="0.501961" />
<path d="M 127 70 L 79 90 L 100 94 Z" fill="#cb6a22" fill-opacity="0.501961" />
<path d="M 270 155 L 257 109 L 251 211 Z" fill="#df904d" fill-opacity="0.501961" />
<path d="M 277 36 L 294 30 L 299 17 Z" fill="#040000" fill-opacity="0.501961" />
<path d="M 246 37 L 206 37 L 163 68 Z" fill="#b04b13" fill-opacity="0.501961" />
<path d="M 9 129 L 4 113 L 50 97 Z" fill="#d30a00" fill-opacity="0.501961" />
<path d="M 305 241 L 305 -4 L 271 115 Z" fill="#ffffff" fill-opacity="0.501961" />
<path d="M 263 215 L 260 263 L 238 269 Z" fill="#d70e05" fill-opacity="0.501961" />
<path d="M 265 14 L 295 19 L 285 30 Z" fill="#fffff4" fill-opacity="0.501961" />
<path d="M 274 90 L 281 4 L 260 22 Z" fill="#9f8269" fill-opacity="0.501961" />
<path d="M 240 290 L -16 238 L 241 40 Z" fill="#ffffff" fill-opacity="0.501961" />
<path d="M 127 49 L -16 124 L 7 -16 Z" fill="#ffffff" fill-opacity="0.501961" />
<path d="M 232 30 L 256 26 L 267 36 Z" fill="#0d0f0d" fill-opacity="0.501961" />
<path d="M 273 59 L 269 143 L 257 102 Z" fill="#d8793a" fill-opacity="0.501961" />
<path d="M 253 205 L 251 35 L -16 153 Z" fill="#ffffff" fill-opacity="0.501961" />
<path d="M 161 36 L 262 24 L 289 -16 Z" fill="#ffffff" fill-opacity="0.501961" />
<path d="M 315 -10 L 130 67 L -2 8 Z" fill="#ffffff" fill-opacity="0.501961" />
<path d="M 315 288 L 295 266 L 223 275 Z" fill="#ffffff" fill-opacity="0.501961" />
<path d="M 19 126 L 96 92 L 58 92 Z" fill="#c8411c" fill-opacity="0.501961" />
<path d="M 315 110 L 266 168 L 279 46 Z" fill="#ffffff" fill-opacity="0.501961" />
<path d="M -16 144 L 115 86 L 17 290 Z" fill="#ffffff" fill-opacity="0.501961" />
</g>
</svg>
