<svg version="1.1" width="900" height="900" xmlns="http://www.w3.org/2000/svg">
<rect x="0" y="0" width="900" height="900" fill="#f5edee" />
<g transform="scale(1, 1)">
<path d="M 342 387 L 382 893 L 550 -14 Z" fill="#773144" fill-opacity="0.501961" />
<path d="M 443 389 L 565 385 L 561 845 Z" fill="#910a19" fill-opacity="0.501961" />
<path d="M 433 915 L 391 557 L 350 837 Z" fill="#ff0000" fill-opacity="0.501961" />
<path d="M 535 564 L 507 912 L 583 824 Z" fill="#fc0000" fill-opacity="0.501961" />
<path d="M 470 -16 L 552 192 L 352 488 Z" fill="#557986" fill-opacity="0.501961" />
<path d="M 408 771 L 427 391 L 525 553 Z" fill="#ffffff" fill-opacity="0.501961" />
<path d="M 342 394 L 543 486 L 583 386 Z" fill="#205b65" fill-opacity="0.501961" />
<path d="M 894 915 L 911 -16 L 462 188 Z" fill="#ffffff" fill-opacity="0.501961" />
<path d="M 401 -16 L -16 645 L 419 309 Z" fill="#ffffff" fill-opacity="0.501961" />
<path d="M 380 458 L 365 732 L -16 443 Z" fill="#ffffff" fill-opacity="0.501961" />
<path d="M 370 572 L 408 732 L 420 469 Z" fill="#ff0000" fill-opacity="0.501961" />
<path d="M 431 349 L 550 391 L 376 386 Z" fill="#ffffff" fill-opacity="0.501961" />
<path d="M 381 906 L -16 894 L 151 -16 Z" fill="#ffffff" fill-opacity="0.501961" />
<path d="M 672 915 L 915 -9 L 531 485 Z" fill="#ffffff" fill-opacity="0.501961" />
<path d="M 550 440 L 464 469 L 375 436 Z" fill="#ffffff" fill-opacity="0.501961" />
<path d="M 523 736 L 505 491 L 412 495 Z" fill="#ffffff" fill-opacity="0.501961" />
<path d="M 549 499 L 565 708 L 503 533 Z" fill="#ff0009" fill-opacity="0.501961" />
<path d="M 497 -16 L 915 5 L 561 276 Z" fill="#ffffff" fill-opacity="0.501961" />
<path d="M 915 891 L 546 461 L 582 915 Z" fill="#ffffff" fill-opacity="0.501961" />
<path d="M 589 397 L 447 340 L 556 342 Z" fill="#5f6a7f" fill-opacity="0.501961" />
<path d="M 510 63 L 432 211 L 454 -5 Z" fill="#595a68" fill-opacity="0.501961" />
<path d="M 334 385 L 422 301 L 441 350 Z" fill="#000a1b" fill-opacity="0.501961" />
<path d="M 496 476 L 375 447 L 411 501 Z" fill="#1e525f" fill-opacity="0.501961" />
<path d="M 531 202 L 419 287 L 491 313 Z" fill="#304256" fill-opacity="0.501961" />
<path d="M 406 824 L 523 915 L 422 480 Z" fill="#ffffff" fill-opacity="0.501961" />
<path d="M 514 528 L 572 411 L 511 479 Z" fill="#000000" fill-opacity="0.501961" />
<path d="M 433 333 L 520 332 L 427 300 Z" fill="#ffffff" fill-opacity="0.501961" />
<path d="M -1 915 L 1 -16 L 382 501 Z" fill="#ffffff" fill-opacity="0.501961" />
<path d="M 566 720 L 498 870 L 566 850 Z" fill="#e5091f" fill-opacity="0.501961" />
<path d="M 380 448 L 384 335 L 332 403 Z" fill="#18394b" fill-opacity="0.501961" />
<path d="M 373 624 L 359 823 L 425 890 Z" fill="#f0001d" fill-opacity="0.501961" />
<path d="M 554 571 L 521 724 L 510 503 Z" fill="#fb0421" fill-opacity="0.501961" />
<path d="M 506 472 L 519 684 L 418 486 Z" fill="#ffffff" fill-opacity="0.501961" />
<path d="M 535 456 L 552 423 L 436 456 Z" fill="#ffffff" fill-opacity="0.501961" />
<path d="M 378 505 L 419 514 L 370 663 Z" fill="#f60012" fill-opacity="0.501961" />
<path d="M 525 823 L 400 915 L 523 729 Z" fill="#ffffff" fill-opacity="0.501961" />
<path d="M 552 459 L 570 396 L 546 367 Z" fill="#000000" fill-opacity="0.501961" />
<path d="M 422 261 L 413 218 L 427 180 Z" fill="#000000" fill-opacity="0.501961" />
<path d="M 483 -16 L 536 142 L 915 0 Z" fill="#ffffff" fill-opacity="0.501961" />
<path d="M 433 -16 L -16 4 L 332 437 Z" fill="#ffffff" fill-opacity="0.501961" />
<path d="M 433 270 L 495 56 L 544 214 Z" fill="#b8b5bf" fill-opacity="0.501961" />
<path d="M 241 386 L 419 260 L 404 327 Z" fill="#ffffff" fill-opacity="0.501961" />
<path d="M 549 388 L 423 354 L 378 390 Z" fill="#ffffff" fill-opacity="0.501961" />
<path d="M 564 392 L 448 390 L 524 412 Z" fill="#000105" fill-opacity="0.501961" />
<path d="M 361 670 L -16 789 L 360 915 Z" fill="#ffffff" fill-opacity="0.501961" />
<path d="M 358 404 L 428 388 L 493 410 Z" fill="#070201" fill-opacity="0.501961" />
<path d="M 359 804 L 378 497 L 192 203 Z" fill="#ffffff" fill-opacity="0.501961" />
<path d="M 501 430 L 525 412 L 444 417 Z" fill="#f8f6ff" fill-opacity="0.501961" />
<path d="M 915 901 L 899 64 L 533 915 Z" fill="#ffffff" fill-opacity="0.501961" />
<path d="M 359 462 L 349 398 L 412 513 Z" fill="#d2f1ff" fill-opacity="0.501961" />
<path d="M 511 215 L 535 196 L 526 118 Z" fill="#585864" fill-opacity="0.501961" />
<path d="M 394 455 L 378 431 L 477 443 Z" fill="#ffffff" fill-opacity="0.501961" />
<path d="M 427 319 L 447 327 L 432 251 Z" fill="#ffffff" fill-opacity="0.501961" />
<path d="M 342 393 L 339 426 L 354 454 Z" fill="#070003" fill-opacity="0.501961" />
<path d="M 413 469 L 415 501 L 367 431 Z" fill="#000008" fill-opacity="0.501961" />
<path d="M -16 907 L 392 907 L 2 -16 Z" fill="#ffffff" fill-opacity="0.501961" />
</g>
</svg>
