<svg version="1.1" width="630" height="552" xmlns="http://www.w3.org/2000/svg">
<rect x="0" y="0" width="630" height="552" fill="#f7f4f5" />
<g transform="scale(1, 1)">
<path d="M 24 461 L 92 255 L 210 193 Z" fill="#510000" fill-opacity="0.501961" />
<path d="M 522 144 L 306 151 L 122 266 Z" fill="#5a5054" fill-opacity="0.501961" />
<path d="M 74 434 L 156 212 L 37 380 Z" fill="#390000" fill-opacity="0.501961" />
<path d="M 51 423 L 102 401 L 52 355 Z" fill="#000000" fill-opacity="0.501961" />
<path d="M 66 331 L 187 245 L 143 220 Z" fill="#ff0000" fill-opacity="0.501961" />
<path d="M 81 381 L 146 270 L 538 567 Z" fill="#ffffff" fill-opacity="0.501961" />
<path d="M 594 156 L 428 171 L 520 137 Z" fill="#636d77" fill-opacity="0.501961" />
<path d="M -16 351 L 90 304 L 163 70 Z" fill="#ffffff" fill-opacity="0.501961" />
<path d="M -15 -16 L 618 97 L 87 212 Z" fill="#ffffff" fill-opacity="0.501961" />
<path d="M -16 441 L 645 243 L 624 567 Z" fill="#ffffff" fill-opacity="0.501961" />
<path d="M 188 273 L 166 212 L 265 174 Z" fill="#b1bcbd" fill-opacity="0.501961" />
<path d="M 214 199 L 291 204 L 364 166 Z" fill="#3c3e3e" fill-opacity="0.501961" />
<path d="M 46 335 L -16 365 L 51 567 Z" fill="#ffffff" fill-opacity="0.501961" />
<path d="M 137 279 L 78 337 L 58 418 Z" fill="#000003" fill-opacity="0.501961" />
<path d="M 61 331 L 107 303 L 51 372 Z" fill="#ff0a0d" fill-opacity="0.501961" />
<path d="M -16 0 L 8 433 L 251 -4 Z" fill="#ffffff" fill-opacity="0.501961" />
<path d="M 267 217 L 645 567 L 437 169 Z" fill="#ffffff" fill-opacity="0.501961" />
</g>
</svg>
